<svg id="Layer_1" data-name="Layer 1" xmlns="http://www.w3.org/2000/svg" viewBox="0 0 338 315.31"><defs><style>.cls-1{fill:#fff;}.cls-2{fill:#17181b;}.cls-3{fill:#fff;}</style></defs><path class="cls-1" d="M14,297.14a6.44,6.44,0,0,1-3.6-1c-4.43-2.49-8.08-8.66-8.13-13.74,0-3,1.21-4.91,3.35-5.09a6.52,6.52,0,0,1,3.6,1c4.43,2.5,8.08,8.66,8.13,13.75C17.33,295.05,16.08,297,14,297.14Z"/><path class="cls-2" d="M5.65,278.31h0a5.52,5.52,0,0,1,3,.85c4.09,2.3,7.58,8.21,7.64,12.9,0,1.16-.2,3.9-2.45,4.09a5.5,5.5,0,0,1-3-.85c-4.09-2.3-7.59-8.2-7.64-12.89,0-1.17.2-3.91,2.45-4.1Zm-.17-2c-2.57.22-4.29,2.43-4.25,6.09.06,5.41,3.92,11.94,8.64,14.59a7.35,7.35,0,0,0,4.16,1.1c2.58-.22,4.3-2.42,4.26-6.09-.06-5.4-3.93-11.94-8.64-14.59a7.44,7.44,0,0,0-4.17-1.1Z"/><path class="cls-2" d="M18.29,292c0,2.68-.88,4.57-2.38,5.49h0l320.87-198h0a2.54,2.54,0,0,0,1-2.3,7.26,7.26,0,0,0-1.09-3.51l-321,190A17.41,17.41,0,0,1,18.29,292Z"/><path class="cls-3" d="M16.05,282.36a17.83,17.83,0,0,0-5.91-5.78,10.59,10.59,0,0,0-2.23-.95l324.22-184a1.92,1.92,0,0,1,.32,0,1.89,1.89,0,0,1,1.2.28,5.65,5.65,0,0,1,1.63,1.46Z"/><path class="cls-2" d="M332.56,92.53h0a1.15,1.15,0,0,1,.61.21,4.2,4.2,0,0,1,.55.38L16.34,281a18.35,18.35,0,0,0-5.72-5.32l-.44-.24,320.7-182h0l1.68-.95Zm-.17-2a1.73,1.73,0,0,0-.75.23h0L3.7,276.89h0a4.3,4.3,0,0,1,1.8-.54,7.28,7.28,0,0,1,4.15,1.09,17.39,17.39,0,0,1,6.07,6.26l321-190A7.2,7.2,0,0,0,334.14,91a3,3,0,0,0-1.75-.46Z"/><path class="cls-1" d="M67.94,264.25a9.22,9.22,0,0,0,0-1.06c-.06-5.72-4.16-12.64-9.14-15.44a10.58,10.58,0,0,0-1-.48l34.45-19.55a7.12,7.12,0,0,1,1.28.58c4.44,2.49,8.09,8.66,8.14,13.74a7.58,7.58,0,0,1-.11,1.41Z"/><path class="cls-2" d="M92.42,228.81a6,6,0,0,1,.72.35c4.09,2.3,7.58,8.2,7.63,12.89a7.13,7.13,0,0,1,0,.8l-31.8,19.62a20.91,20.91,0,0,0-9-15.22l32.49-18.44Zm-.19-2.16-36.84,20.9a8.43,8.43,0,0,1,3,1.06c4.72,2.65,8.58,9.18,8.64,14.59a8.35,8.35,0,0,1-.5,3.11l36.05-22.25a9.17,9.17,0,0,0,.21-2c-.06-5.41-3.93-11.94-8.64-14.59a8.7,8.7,0,0,0-1.88-.79Z"/><path class="cls-1" d="M53.19,314.13a7.57,7.57,0,0,1-2.73.13c-5.05-.59-10.79-4.87-12.8-9.54a5.55,5.55,0,0,1-.31-4.56,3.53,3.53,0,0,1,2.4-1.79,7.57,7.57,0,0,1,2.73-.13c5.05.59,10.8,4.87,12.81,9.54a5.55,5.55,0,0,1,.3,4.56A3.49,3.49,0,0,1,53.19,314.13Z"/><path class="cls-2" d="M39.51,297.41l.49,1.91a6.69,6.69,0,0,1,2.36-.1c4.66.55,10.16,4.64,12,8.95a4.59,4.59,0,0,1,.32,3.73,2.5,2.5,0,0,1-1.76,1.28,6.68,6.68,0,0,1-2.36.1c-4.66-.55-10.16-4.64-12-8.95a4.63,4.63,0,0,1-.32-3.73A2.52,2.52,0,0,1,40,299.32l-.49-1.91Zm0,0c-3.2.82-4.44,3.82-2.76,7.7,2.14,5,8.23,9.5,13.6,10.13a8.31,8.31,0,0,0,3.08-.15c3.2-.81,4.44-3.81,2.77-7.7-2.15-5-8.24-9.5-13.61-10.13a8.54,8.54,0,0,0-3.08.15Z"/><path class="cls-2" d="M56.2,307.39c1.06,2.45.94,4.55-.09,6h0L275.67,6.81h0a2.51,2.51,0,0,0,0-2.51,7.3,7.3,0,0,0-2.35-2.82L50.61,300.7A17.27,17.27,0,0,1,56.2,307.39Z"/><path class="cls-3" d="M50.39,299.33a17.82,17.82,0,0,0-7.68-3.05,10.24,10.24,0,0,0-2.41,0L268.35,1.39a1,1,0,0,1,.57-.34,2.49,2.49,0,0,1,.92,0,5.88,5.88,0,0,1,2.08.72Z"/><path class="cls-2" d="M269.16,2a1.71,1.71,0,0,1,.57,0,4.42,4.42,0,0,1,.66.15L50.15,298a18.3,18.3,0,0,0-7.33-2.7l-.5-.05L267.9,3.57h0L269.09,2l.07,0ZM268.67.09a2,2,0,0,0-1.1.69h0L36.89,299.05h0a4.69,4.69,0,0,1,2.63-1.64,8.47,8.47,0,0,1,3.07-.15,17.26,17.26,0,0,1,8,3.44L273.34,1.48A7.34,7.34,0,0,0,270,0a3.59,3.59,0,0,0-1.29.06Z"/><path class="cls-1" d="M91.27,262.59c-.1-.33-.23-.66-.37-1-2.26-5.24-8.72-10-14.4-10.71-.36,0-.71-.07-1.06-.08l24.23-31.33a8.37,8.37,0,0,1,1.42,0c5,.59,10.79,4.87,12.8,9.53a8.44,8.44,0,0,1,.45,1.34Z"/><path class="cls-2" d="M100.17,220.45a5.29,5.29,0,0,1,.8,0c4.66.54,10.16,4.64,12,8.95q.15.36.27.75L91.51,260.56A20.91,20.91,0,0,0,77.32,250l22.85-29.55Zm-1-1.93L73.25,252l.06,0a8.54,8.54,0,0,1,3.08-.15C81.76,252.49,87.85,257,90,262a8.35,8.35,0,0,1,.74,3.06l24.66-34.45a9.11,9.11,0,0,0-.59-1.95c-2.14-5-8.23-9.49-13.6-10.12a9.29,9.29,0,0,0-2,0Z"/></svg>