<svg id="Layer_4" data-name="Layer 4" xmlns="http://www.w3.org/2000/svg" viewBox="0 0 576 361"><defs><style>.cls-1{fill:#ff5a6e;stroke:#17181b;stroke-miterlimit:10;stroke-width:18px;}.cls-2{fill:#fff;}.cls-3{fill:#17181b;}.cls-4{fill:#ffc533;}</style></defs><rect class="cls-1" x="9" y="9" width="558" height="343" rx="22.65"/><polygon class="cls-2" points="56.2 177.64 314.45 28.54 471.81 119.39 213.55 268.49 56.2 177.64"/><path class="cls-3" d="M314.45,29.68l155.38,89.71-256.28,148L58.17,177.64l256.28-148Zm0-2.29L54.22,177.64l159.33,92L473.78,119.39l-159.33-92Z"/><polygon class="cls-4" points="315.44 75.05 315.44 37.94 456.5 119.39 424.36 137.94 315.44 75.05"/><path class="cls-3" d="M316.43,39.66l138.09,79.73L424.36,136.8,316.43,74.48V39.66Zm-2-3.43V75.62l109.91,63.46,34.11-19.69-144-83.16Z"/><polygon class="cls-3" points="69.53 177.64 103.64 197.33 314.45 75.62 314.45 36.23 69.53 177.64"/><polygon class="cls-2" points="105.61 197.33 314.45 76.76 422.39 139.08 213.55 259.65 105.61 197.33"/><path class="cls-3" d="M314.45,77.9l106,61.18L213.55,258.51l-106-61.18L314.45,77.9Zm0-2.28L103.64,197.33l109.91,63.46L424.36,139.08,314.45,75.62Z"/><polygon class="cls-4" points="85.33 215.05 58.25 181.1 212.57 270.2 212.57 288.51 85.33 215.05"/><path class="cls-3" d="M62.32,184.59l149.26,86.18v16L86.15,214.38,62.32,184.59Zm-8.1-7,30.62,38.27,128.71,74.31V269.63l-159.33-92Z"/><polygon class="cls-3" points="473.78 119.39 443.17 157.66 213.55 290.22 213.55 269.63 473.78 119.39"/><path class="cls-4" d="M344.51,155.74c-9.93,0-20-5-29.82-14.8-11.25-11.21-16.12-22.44-14.49-33.38,2.86-19.14,24.68-32.58,33.93-37.48a10,10,0,0,1,2.22-.84,16,16,0,0,1,2.29,1.08c4.06,2.35,8.72,7.91,11.33,13.54a2.71,2.71,0,0,1-.69,3.13c-.31.29-.61.59-.92.9-.57.56-1.19,1.18-2.06,1.91-4.45,3.68-7.16,7.65-8.29,12.13a13.09,13.09,0,0,0,2.39,11.32,13.48,13.48,0,0,0,10.54,5.22,14,14,0,0,0,2.73-.28c12.76-2.66,18.11-9.53,20.36-14.82,1.51-3.55,3.8-12.41,5-17.23l5,14a28.5,28.5,0,0,1,1,13.8C382.09,131.49,366.35,155.74,344.51,155.74Z"/><path class="cls-3" d="M336.29,70.28a13.86,13.86,0,0,1,1.86.9c3.9,2.25,8.39,7.64,10.92,13.1a1.72,1.72,0,0,1-.46,2c-.33.3-.64.61-1,.94-.54.54-1.14,1.13-2,1.83-4.6,3.81-7.42,7.95-8.61,12.65a14.06,14.06,0,0,0,2.57,12.17,14.22,14.22,0,0,0,14.26,5.29c13.16-2.74,18.72-9.88,21.06-15.4a130.17,130.17,0,0,0,4.24-14.22l3.89,10.86a27.82,27.82,0,0,1,1,13.43c-2.9,17.16-18.26,40.93-39.56,40.93-9.66,0-19.45-4.88-29.12-14.51-11-11-15.8-21.92-14.21-32.53C304,89,325.48,75.78,334.59,71a8.74,8.74,0,0,1,1.7-.68Zm.12-2.08a11.44,11.44,0,0,0-2.74,1c-14,7.4-57.5,34.76-19.68,72.43,10.85,10.81,21.2,15.09,30.52,15.09,22.14,0,38.41-24.23,41.51-42.58a29.74,29.74,0,0,0-1-14.3L378.83,82.7s-3.64,15.43-5.71,20.28c-2.3,5.41-7.58,11.73-19.65,14.24a12.21,12.21,0,0,1-2.53.26,12.38,12.38,0,0,1-12-15.3c1.21-4.75,4.12-8.43,8-11.62,1.37-1.14,2.14-2,3-2.84a3.69,3.69,0,0,0,.91-4.27c-2.47-5.33-7.12-11.32-11.73-14a16.87,16.87,0,0,0-2.72-1.27Z"/><path class="cls-2" d="M344.51,155.74c-9.93,0-20-5-29.82-14.8-11.26-11.21-16.13-22.45-14.48-33.4C303.1,88.33,325,74.89,334.29,70a10.37,10.37,0,0,1,2-.79,16.12,16.12,0,0,1,2.34,1.11A23.63,23.63,0,0,1,344.11,75a9.73,9.73,0,0,1-5.28,5.2c-8.33,4-25.3,18.33-26.92,29-1.74,11.47,2.71,21.05,12.89,27.7a46.33,46.33,0,0,0,24,7.19c5.7,0,10.5-1.33,14.28-4,7.65-5.3,19.84-24.06,20.52-41.23l.47,1.31a28.5,28.5,0,0,1,1,13.8C382.09,131.49,366.35,155.74,344.51,155.74Z"/><path class="cls-3" d="M336.26,70.25a17.38,17.38,0,0,1,1.89.93,21.54,21.54,0,0,1,4.8,4,9.1,9.1,0,0,1-4.54,4.11c-7.4,3.52-25.68,17.87-27.48,29.7s3,21.88,13.33,28.67A47.35,47.35,0,0,0,348.77,145c5.9,0,10.89-1.38,14.84-4.12,7-4.86,17.78-20.82,20.39-36.72a26,26,0,0,1,.07,9.63c-2.9,17.16-18.26,40.93-39.56,40.93-9.66,0-19.45-4.88-29.12-14.52-11-11-15.8-21.93-14.2-32.55,2.82-18.76,24.41-32,33.56-36.81a9.74,9.74,0,0,1,1.51-.62Zm.1-2.07a10.6,10.6,0,0,0-2.53.95C320,76.39,276,103.82,314,141.64c10.85,10.81,21.2,15.09,30.52,15.09,22.14,0,38.41-24.23,41.51-42.58a29.74,29.74,0,0,0-1-14.3L382.17,92c3.05,17.74-10.75,41.06-19.69,47.26a23.88,23.88,0,0,1-13.71,3.77,45.4,45.4,0,0,1-23.43-7c-9.81-6.41-14.13-15.72-12.45-26.71,1.59-10.43,18.59-24.51,26.37-28.22,3.73-1.77,5.3-4.16,6-6.31a25.86,25.86,0,0,0-6.11-5.32,17,17,0,0,0-2.77-1.29Z"/><path class="cls-3" d="M343,114.83a41,41,0,0,1-1.35,11,33.78,33.78,0,0,1-4.36,10.31,22.17,22.17,0,0,1-8.28,7.69,19.47,19.47,0,0,1-11,1.59c3.66-.4,7.22-1.07,10.25-2.93a24.43,24.43,0,0,0,7.35-7.42,43,43,0,0,0,4.57-9.68A81.76,81.76,0,0,0,343,114.83Z"/><path class="cls-3" d="M339.26,109.53a19.12,19.12,0,0,1-10.92.31,17,17,0,0,1-9.25-6.27c-2.39-3-3.42-6.71-4.24-10.28-.17-1.84-.44-3.66-.53-5.48.07-1.83.09-3.64.22-5.45.31,1.8.5,3.59.74,5.37s.72,3.5,1.06,5.23c1.12,3.32,2.13,6.75,4.33,9.43a17.53,17.53,0,0,0,8.11,6A24.22,24.22,0,0,0,339.26,109.53Z"/><path class="cls-3" d="M340.53,112.13A46,46,0,0,1,332,119.4a39.79,39.79,0,0,1-10.12,5.06,26.31,26.31,0,0,1-11.32,1.3A19.51,19.51,0,0,1,300.39,121a24.34,24.34,0,0,0,10.31,3.21,30.83,30.83,0,0,0,10.58-1.67,53.49,53.49,0,0,0,9.93-4.47A98.09,98.09,0,0,0,340.53,112.13Z"/><path class="cls-3" d="M359.8,115.34a16.8,16.8,0,0,1,6.34,5.57,23.9,23.9,0,0,1,3.62,7.75,30,30,0,0,1,1,8.46c-.05,1.42-.23,2.82-.35,4.22-.3,1.38-.55,2.76-.92,4.11,0-2.81,0-5.56-.25-8.28a48.13,48.13,0,0,0-1.35-8,33.44,33.44,0,0,0-3-7.46A24.94,24.94,0,0,0,359.8,115.34Z"/><path class="cls-3" d="M350.75,117.54c2.63,2.22,3.88,5.69,4.59,9a34.45,34.45,0,0,1,.43,10.23,52.48,52.48,0,0,1-2,10c-.54,1.61-1,3.23-1.61,4.8s-1.3,3.12-2,4.64l2.16-9.8c.61-3.27,1.21-6.52,1.49-9.8a47.91,47.91,0,0,0,0-9.8A19.27,19.27,0,0,0,350.75,117.54Z"/><path class="cls-3" d="M370,108.13a10.81,10.81,0,0,1,5.1-1,10.33,10.33,0,0,1,5.17,1.48,9.75,9.75,0,0,1,3.68,3.94,14.78,14.78,0,0,1,1,2.45,20.93,20.93,0,0,1,.37,2.57,32.32,32.32,0,0,0-2.63-4.2,12.49,12.49,0,0,0-3.43-3.07C376.64,108.65,373.42,108.17,370,108.13Z"/><path class="cls-3" d="M345.66,91.66a12.28,12.28,0,0,1-6.85-2,15.41,15.41,0,0,1-5.08-5.23,20,20,0,0,1-2.41-6.82c-.16-1.19-.24-2.38-.33-3.56.08-1.19.1-2.37.25-3.54.51,2.32.91,4.57,1.56,6.76a29,29,0,0,0,2.63,6.15A18.11,18.11,0,0,0,345.66,91.66Z"/><path class="cls-3" d="M331.45,98a1.15,1.15,0,0,0,0,2.17,4.13,4.13,0,0,0,3.75,0,1.14,1.14,0,0,0,0-2.17A4.19,4.19,0,0,0,331.45,98Z"/><ellipse class="cls-3" cx="337.17" cy="120.23" rx="2.65" ry="1.53"/><ellipse class="cls-3" cx="307.42" cy="102.14" rx="2.65" ry="1.53"/><ellipse class="cls-3" cx="315.95" cy="136.72" rx="2.65" ry="1.53"/><ellipse class="cls-3" cx="339.26" cy="150.1" rx="2.65" ry="1.53"/><ellipse class="cls-3" cx="359.8" cy="120.84" rx="2.65" ry="1.53"/><ellipse class="cls-3" cx="371.98" cy="113.69" rx="2.65" ry="1.53"/><path class="cls-3" d="M269.43,216.2s-16.62-8.4-12.91-25.06l16.55-.49L276,205.14Z"/><path class="cls-4" d="M270.67,214.84c1.69-12.55-8.89-21.21-12.48-23.77l12.61-10a17,17,0,0,0,6.46-14.42c-.61-8.6-5.83-13.53-14.31-13.53a34.92,34.92,0,0,0-11.45,2.27,30.39,30.39,0,0,0-12.08,8.18,40.72,40.72,0,0,0-8.8,15.43l-2.74,8.49-1.64-20.12a40.4,40.4,0,0,1,12.27-32.72,50.47,50.47,0,0,1,33.42-13.43c17.82,0,32.12,10.83,39.23,29.7,5,13.36,4.79,25.38-.69,35.73C300.68,205.09,276.83,213.05,270.67,214.84Z"/><path class="cls-3" d="M271.93,122.19c17.39,0,31.35,10.59,38.3,29.06,4.93,13.08,4.71,24.82-.63,34.91-9,16.94-30.13,24.9-37.79,27.3.75-11.34-7.74-19.23-12-22.44l11.58-9.2a17.92,17.92,0,0,0,6.83-15.26c-.64-9.05-6.36-14.44-15.29-14.44a36.09,36.09,0,0,0-11.78,2.32,31.24,31.24,0,0,0-12.47,8.44,41.71,41.71,0,0,0-9,15.8l-1.22,3.77-1.23-15.18a39.34,39.34,0,0,1,12-31.91,49.39,49.39,0,0,1,32.74-13.17Zm0-2a51.1,51.1,0,0,0-34.09,13.7,41.12,41.12,0,0,0-12.58,33.52l2,25,4.26-13.19a40,40,0,0,1,8.58-15.06,29.64,29.64,0,0,1,11.69-7.93A34.05,34.05,0,0,1,263,154.09c8.71,0,12.81,5.37,13.32,12.61a16,16,0,0,1-6.09,13.57l-13.66,10.87s16.17,9.67,12.91,25.06c0,0,61.79-14.81,42.65-65.65C304,128.94,288,120.21,271.93,120.21Z"/><path class="cls-2" d="M270.67,214.84a20,20,0,0,0-.5-7.77c2.49-1.31,11.06-5.9,16-9.22,6-4,15-10.1,18.33-21,3.17-10.31-1.6-22.52-7.13-30.51-7.51-10.85-17.07-16.6-28.4-17.06-.37,0-.75,0-1.12,0-10.26,0-21,5.72-27.94,14.93-3.55,4.7-5.92,10.26-7.86,15.11-.2.55-4.26,12.4-1.52,20l-2.64,8.16-1.64-20.12c-.91-12.72,3.48-24.43,12-32.51a50.41,50.41,0,0,1,33.64-13.64c17.82,0,32.12,10.83,39.23,29.7,5,13.36,4.8,25.38-.69,35.73C300.68,205.1,276.83,213.05,270.67,214.84Z"/><path class="cls-3" d="M271.93,122.19h0c17.39,0,31.35,10.59,38.3,29.06,4.93,13.08,4.71,24.82-.63,34.91-9,17-30.15,24.91-37.81,27.31a21.2,21.2,0,0,0-.47-5.88c3.12-1.66,10.81-5.83,15.4-8.92,5.71-3.85,15.27-10.29,18.72-21.54,3.27-10.66-1.61-23.18-7.27-31.36-7.7-11.13-17.51-17-29.17-17.49-.39,0-.77,0-1.16,0-10.56,0-21.57,5.87-28.72,15.31-3.64,4.8-6,10.44-8,15.43-.45,1.29-4.21,12.52-1.62,20.32l-1,3.13-1.23-15.21v-.31A38.86,38.86,0,0,1,239,135.56a49.4,49.4,0,0,1,33-13.37Zm0-2a51.13,51.13,0,0,0-34.32,13.91,41.06,41.06,0,0,0-12.36,32.95c0,.12,0,.24,0,.36l2,25,4.26-13.19c-2.86-7.3,1.27-19.3,1.39-19.64,2-5,4.32-10.37,7.74-14.88,7.15-9.44,17.62-14.54,27.15-14.54l1.08,0c12.56.52,21.41,7.66,27.63,16.65,4.83,7,10.2,19.23,7,29.65S291.66,193,285.61,197c-5.71,3.85-16.57,9.52-16.57,9.52v.09a19,19,0,0,1,.4,9.56s61.79-14.81,42.65-65.65C304,128.94,288,120.21,271.93,120.21Z"/><path class="cls-3" d="M293.74,205.41c-.44-6.31-2.13-12.44-5.63-17.43a26.74,26.74,0,0,0-6.32-6.55,44.34,44.34,0,0,0-8.12-4.67A42.31,42.31,0,0,1,278.3,178a27.37,27.37,0,0,1,4.34,2.15,22.1,22.1,0,0,1,7.09,6.69,24.21,24.21,0,0,1,3.82,9A25,25,0,0,1,293.74,205.41Z"/><path class="cls-3" d="M315.68,166.63a62.18,62.18,0,0,0-19.83-5.94,35.05,35.05,0,0,0-10.17.51,33.57,33.57,0,0,0-9.62,3.84,23.9,23.9,0,0,1,9.24-5.31,28.44,28.44,0,0,1,10.74-1,38.58,38.58,0,0,1,10.41,2.65A38,38,0,0,1,315.68,166.63Z"/><path class="cls-3" d="M306.45,140a33.85,33.85,0,0,0-11-3.46,16.35,16.35,0,0,0-10.71,2.23c-3.14,2-5.33,5.17-7.3,8.45-.79,1.75-1.63,3.5-2.35,5.31s-1.23,3.7-1.94,5.56c.28-1.95.68-3.89,1-5.85.54-1.91,1.24-3.79,1.91-5.68,1.73-3.62,4.06-7.15,7.61-9.47a16.39,16.39,0,0,1,12-2A25.34,25.34,0,0,1,306.45,140Z"/><path class="cls-3" d="M244.08,160.72a24.63,24.63,0,0,1-5.34-7.94,21.49,21.49,0,0,1-1.76-9.59,17.91,17.91,0,0,1,3.1-9.26,24.64,24.64,0,0,1,3.06-3.76,43.88,43.88,0,0,1,3.75-3,37,37,0,0,0-5.5,7.49,19.6,19.6,0,0,0-2.43,8.6,25,25,0,0,0,1.2,8.95A39.77,39.77,0,0,0,244.08,160.72Z"/><path class="cls-3" d="M261.94,153.2a25.36,25.36,0,0,1-3.14-9.93,20.52,20.52,0,0,1,1.54-10.5,18.77,18.77,0,0,1,6.82-8.14,31.88,31.88,0,0,1,4.59-2.58q2.47-.89,5-1.57c-1.51.89-3.07,1.57-4.53,2.44a30.08,30.08,0,0,0-4.1,2.92,20.22,20.22,0,0,0-5.94,7.72,22.71,22.71,0,0,0-1.84,9.62A37.8,37.8,0,0,0,261.94,153.2Z"/><ellipse class="cls-3" cx="271.79" cy="135.36" rx="2.65" ry="1.53"/><ellipse class="cls-3" cx="249.88" cy="143.04" rx="2.65" ry="1.53"/><path class="cls-3" d="M254.36,126.12a1.15,1.15,0,0,0,0,2.17,4.13,4.13,0,0,0,3.75,0,1.14,1.14,0,0,0,0-2.17A4.13,4.13,0,0,0,254.36,126.12Z"/><ellipse class="cls-3" cx="231.97" cy="150.4" rx="2.65" ry="1.53"/><ellipse class="cls-3" cx="283.74" cy="128.51" rx="2.65" ry="1.53"/><ellipse class="cls-3" cx="302.08" cy="142.32" rx="2.65" ry="1.53"/><ellipse class="cls-3" cx="307.79" cy="154.73" rx="2.65" ry="1.53"/><ellipse class="cls-3" cx="288.85" cy="150.84" rx="2.65" ry="1.53"/><path class="cls-3" d="M291.93,174.15a1.14,1.14,0,0,0,0,2.16,4.13,4.13,0,0,0,3.75,0,1.14,1.14,0,0,0,0-2.16A4.13,4.13,0,0,0,291.93,174.15Z"/><ellipse class="cls-3" cx="303.8" cy="186.32" rx="2.65" ry="1.53"/><ellipse class="cls-3" cx="283.13" cy="204.6" rx="2.65" ry="1.53"/><ellipse class="cls-3" cx="275.97" cy="195.95" rx="2.65" ry="1.53"/><path class="cls-2" d="M229.28,314.29a5.63,5.63,0,0,1-2.67-.8A14.77,14.77,0,0,1,219.76,302a4.72,4.72,0,0,1,1.05-3.42,2.59,2.59,0,0,1,1.92-.76,5.61,5.61,0,0,1,2.66.81,14.78,14.78,0,0,1,6.86,11.46,4.74,4.74,0,0,1-1.06,3.42A2.56,2.56,0,0,1,229.28,314.29Z"/><path class="cls-3" d="M222.73,298.84h0a4.73,4.73,0,0,1,2.18.68,13.91,13.91,0,0,1,6.35,10.61,3.82,3.82,0,0,1-.77,2.71,1.62,1.62,0,0,1-1.21.47,4.77,4.77,0,0,1-2.19-.68A13.91,13.91,0,0,1,220.75,302a3.86,3.86,0,0,1,.76-2.72,1.64,1.64,0,0,1,1.22-.46Zm0-2c-2.39,0-4,1.9-4,5.18a15.84,15.84,0,0,0,7.36,12.3,6.56,6.56,0,0,0,3.15.93c2.39,0,4-1.9,4-5.18a15.85,15.85,0,0,0-7.37-12.3,6.45,6.45,0,0,0-3.14-.93Z"/><path class="cls-3" d="M233.24,310.1c0,2.27-.74,3.87-2,4.65h0L501.84,146.06h0a2.13,2.13,0,0,0,.83-1.95,6.14,6.14,0,0,0-.93-3L231,303.07A14.75,14.75,0,0,1,233.24,310.1Z"/><path class="cls-4" d="M231.34,301.72a15.09,15.09,0,0,0-5-4.79,8.69,8.69,0,0,0-1.58-.7L498,139.59l.34,0a1.45,1.45,0,0,1,.8.22,4.53,4.53,0,0,1,1.23,1.05Z"/><path class="cls-3" d="M498.32,140.52a1.76,1.76,0,0,1,.29.13l.06,0-267,159.73a15.65,15.65,0,0,0-4.68-4.28L496.73,141.42h0l1.58-.91Zm-.06-2a1.52,1.52,0,0,0-.8.21h0L220.84,297.35h0a3.73,3.73,0,0,1,1.9-.49,6.52,6.52,0,0,1,3.13.93,14.67,14.67,0,0,1,5.16,5.27L501.74,141.14a6.17,6.17,0,0,0-2.17-2.22,2.78,2.78,0,0,0-1.31-.39Z"/><path class="cls-2" d="M275.3,285.52a16.72,16.72,0,0,0-7.87-13.16l-.54-.28,28.74-16.48a8.22,8.22,0,0,1,1,.45,14.8,14.8,0,0,1,6.85,11.46,5.72,5.72,0,0,1-.08,1.09l-28.11,17.53C275.3,285.93,275.3,285.73,275.3,285.52Z"/><path class="cls-3" d="M295.7,256.7a3.74,3.74,0,0,1,.45.22,13.88,13.88,0,0,1,6.34,10.61c0,.16,0,.32,0,.49l-26.26,16.37a18.23,18.23,0,0,0-7.36-12.3L295.7,256.7Zm-.19-2.17-31.07,17.81a7.18,7.18,0,0,1,2.51.89,15.82,15.82,0,0,1,7.36,12.3,7,7,0,0,1-.41,2.63l30.4-19a7.63,7.63,0,0,0,.17-1.71,15.84,15.84,0,0,0-7.36-12.31,7.33,7.33,0,0,0-1.6-.66Z"/><path class="cls-2" d="M247.32,332.4a5.63,5.63,0,0,1-2.67-.8,14.77,14.77,0,0,1-6.85-11.46,4.72,4.72,0,0,1,1-3.42,2.58,2.58,0,0,1,1.91-.75,5.59,5.59,0,0,1,2.67.8,14.78,14.78,0,0,1,6.86,11.46,4.73,4.73,0,0,1-1.06,3.42A2.56,2.56,0,0,1,247.32,332.4Z"/><path class="cls-3" d="M240.77,317a4.73,4.73,0,0,1,2.18.68,13.93,13.93,0,0,1,6.35,10.61,3.86,3.86,0,0,1-.77,2.72,1.61,1.61,0,0,1-1.21.46,4.77,4.77,0,0,1-2.19-.68,13.91,13.91,0,0,1-6.35-10.61,3.91,3.91,0,0,1,.77-2.72,1.64,1.64,0,0,1,1.22-.46Zm0-2c-2.39,0-4,1.9-4,5.18a15.82,15.82,0,0,0,7.36,12.3,6.45,6.45,0,0,0,3.15.93c2.39,0,4-1.9,4-5.18a15.82,15.82,0,0,0-7.36-12.3,6.56,6.56,0,0,0-3.14-.93Z"/><path class="cls-3" d="M251.27,328.21c0,2.27-.73,3.87-2,4.65h0l270.6-168.68h0a2.12,2.12,0,0,0,.84-1.95,6.17,6.17,0,0,0-.93-3L249.06,321.18A14.53,14.53,0,0,1,251.27,328.21Z"/><path class="cls-4" d="M249.38,319.84a15,15,0,0,0-5-4.8,9.72,9.72,0,0,0-1.57-.7L515.07,158.22l.92-.51a1.59,1.59,0,0,1,.36,0,1.46,1.46,0,0,1,.78.23,4.53,4.53,0,0,1,1.23,1Z"/><path class="cls-3" d="M516.36,158.63a1.76,1.76,0,0,1,.29.13l.05,0-267,159.73a15.79,15.79,0,0,0-4.68-4.28L514.8,159.51h0l1.55-.89Zm-.07-2a1.51,1.51,0,0,0-.79.21h0L238.87,315.46h0a3.73,3.73,0,0,1,1.9-.49,6.52,6.52,0,0,1,3.13.93,14.56,14.56,0,0,1,5.15,5.27L519.78,159.25a6.25,6.25,0,0,0-2.17-2.22,2.81,2.81,0,0,0-1.32-.39Z"/><path class="cls-2" d="M293.34,303.63a16.73,16.73,0,0,0-7.87-13.16l-.54-.28,28.73-16.48a7,7,0,0,1,1,.45,14.78,14.78,0,0,1,6.86,11.46,5.94,5.94,0,0,1-.08,1.1l-28.11,17.52C293.34,304,293.34,303.84,293.34,303.63Z"/><path class="cls-3" d="M313.74,274.81a3.61,3.61,0,0,1,.44.22,13.89,13.89,0,0,1,6.35,10.61c0,.16,0,.32,0,.49L294.26,302.5a18.23,18.23,0,0,0-7.36-12.3l26.84-15.39Zm-.19-2.17-31.07,17.82a7,7,0,0,1,2.51.88,15.84,15.84,0,0,1,7.36,12.3,7,7,0,0,1-.42,2.64l30.41-19a7.57,7.57,0,0,0,.17-1.71,15.84,15.84,0,0,0-7.36-12.31,7.54,7.54,0,0,0-1.6-.66Z"/><path class="cls-4" d="M170.19,221.26c-10,0-19.31-2.24-26.33-6.29a27.59,27.59,0,0,1-6-4.56l-.29-.3h-.07c-14.47-15.8-14.88-32.4-14.74-36.44l47.33,2.06,47.4-2.06c.13,4-.29,20.24-14.17,35.81l-.58.65h0l-.32.28a27.84,27.84,0,0,1-6,4.56C189.49,219,180.15,221.26,170.19,221.26Z"/><path class="cls-3" d="M123.77,174.7l46.47,2,46.31-2c0,5.1-1.26,19.89-14,34.15l-.32.36-.5.51a26.54,26.54,0,0,1-5.76,4.4c-6.86,4-16,6.15-25.82,6.15s-19-2.19-25.83-6.15a26.54,26.54,0,0,1-5.76-4.4l-.48-.42c-13.08-14.39-14.34-29.45-14.35-34.6Zm94.69-2.06-48.3,2.1-48.3-2.1s-2.12,19.76,15.23,38.46h.1a28.54,28.54,0,0,0,6.18,4.73c7.4,4.27,17.11,6.41,26.82,6.41s19.41-2.14,26.81-6.41a28.54,28.54,0,0,0,6.18-4.73h0c.1-.1.18-.2.27-.3s.4-.44.59-.66c16.41-18.41,14.38-37.5,14.38-37.5Z"/><path class="cls-3" d="M218.46,172.64l-1.73.07c-2.29,3.57-2.24,8-4.28,11.82-3.46,6.41-5.72,8.11-22.62,9.22-14.05,5.52,3.06,19.95-28.11,27.91,12.29,1.63,25.71-.3,35.28-5.83a28.54,28.54,0,0,0,6.18-4.73h0c.1-.1.18-.2.27-.3s.4-.44.59-.66C220.49,191.73,218.46,172.64,218.46,172.64Z"/><path class="cls-4" d="M170.19,202.05c-12.81,0-24.85-2.87-33.89-8.1s-13.89-12-13.89-19.27,4.93-14.11,13.89-19.28,21.08-8.09,33.89-8.09,24.84,2.87,33.88,8.09,13.89,12,13.89,19.28S213,188.79,204.07,194,183,202.05,170.19,202.05Z"/><path class="cls-3" d="M170.19,147.8c12.72,0,24.66,2.85,33.63,8,8.8,5.08,13.65,11.77,13.65,18.85s-4.85,13.77-13.65,18.85c-9,5.18-20.91,8-33.63,8s-24.67-2.85-33.64-8c-8.8-5.08-13.65-11.78-13.65-18.85s4.85-13.77,13.65-18.85c9-5.18,20.91-8,33.64-8Zm0-1c-12.36,0-24.71,2.72-34.14,8.16-18.85,10.89-18.85,28.53,0,39.41,9.43,5.45,21.78,8.17,34.14,8.17s24.7-2.72,34.13-8.17c18.85-10.88,18.85-28.52,0-39.41-9.43-5.44-21.78-8.16-34.13-8.16Z"/><path class="cls-2" d="M170.19,198.41c-11.13,0-21.58-2.49-29.43-7s-12-10.42-12-16.7,4.28-12.22,12-16.7,18.3-7,29.43-7,21.57,2.49,29.42,7,12,10.41,12,16.7-4.28,12.22-12,16.7S181.31,198.41,170.19,198.41Z"/><path class="cls-3" d="M170.19,151.44c11,0,21.39,2.47,29.17,7,7.61,4.4,11.8,10.18,11.8,16.28S207,186.56,199.36,191c-7.78,4.49-18.14,7-29.17,7s-21.4-2.47-29.18-7c-7.61-4.39-11.8-10.17-11.8-16.27S133.4,162.8,141,158.4c7.78-4.49,18.14-7,29.18-7Zm0-1c-10.74,0-21.48,2.37-29.67,7.1-16.39,9.46-16.39,24.8,0,34.26,8.19,4.73,18.93,7.09,29.67,7.09s21.47-2.36,29.67-7.09c16.38-9.46,16.38-24.8,0-34.26-8.2-4.73-18.94-7.1-29.67-7.1Z"/><path class="cls-4" d="M142,165.07c-1.12-.36-1.86-1-1.93-1.67s.31-1.07,1.05-1.49l7-4a6,6,0,0,1,2.9-.69,5,5,0,0,1,3.59,1.22l13.92,15.29Z"/><path class="cls-3" d="M151,157.66h0a4.61,4.61,0,0,1,3.23,1.06l12.66,13.92-24.77-8c-1.05-.34-1.55-.88-1.59-1.26s.27-.7.81-1l7-4a5.38,5.38,0,0,1,2.65-.63Zm0-1a6.43,6.43,0,0,0-3.15.75l-7,4c-2.09,1.2-1.6,3.23,1,4.07l28.32,9.18L155,158.06a5.51,5.51,0,0,0-4-1.38Z"/><path class="cls-4" d="M137.4,177.76a5,5,0,0,1-3.61-1.27,1.19,1.19,0,0,1-.33-1l.86-5.7c.16-1.07,1.94-1.94,4-1.94a6.9,6.9,0,0,1,1.58.19l27.39,6.48-29.06,3.16A7.13,7.13,0,0,1,137.4,177.76Z"/><path class="cls-3" d="M138.28,167.39v1a6.56,6.56,0,0,1,1.47.17l24.59,5.82-26.2,2.85a6.06,6.06,0,0,1-.73,0,4.5,4.5,0,0,1-3.25-1.09.69.69,0,0,1-.21-.57l.86-5.71c.11-.71,1.56-1.51,3.47-1.51v-1Zm0,0c-2.22,0-4.24,1-4.45,2.36l-.86,5.7c-.23,1.53,1.88,2.8,4.44,2.8a5.87,5.87,0,0,0,.83-.05l31.92-3.47L140,167.59a7,7,0,0,0-1.69-.2Z"/><path class="cls-4" d="M146.13,189.68a5.42,5.42,0,0,1-3.35-1L137.1,184a1.35,1.35,0,0,1-.6-1.35c.2-.78,1.25-1.45,2.67-1.71L168,175.63l-18.74,13.2A5.56,5.56,0,0,1,146.13,189.68Z"/><path class="cls-3" d="M165.91,176.52,149,188.43a5.19,5.19,0,0,1-2.88.76,4.9,4.9,0,0,1-3-.87l-5.69-4.69c-.35-.29-.5-.58-.43-.84.12-.47.89-1.1,2.28-1.36l26.65-4.91Zm4.25-1.79-31.08,5.73c-2.86.53-4,2.51-2.3,3.93l5.69,4.69a5.9,5.9,0,0,0,3.66,1.1,6.17,6.17,0,0,0,3.45-.94l20.58-14.51Z"/><path class="cls-4" d="M166.09,195.6a6.77,6.77,0,0,1-1.09-.09L155.43,194c-1.49-.23-2.6-.9-2.85-1.7a1.28,1.28,0,0,1,.49-1.31l16.62-15.19.36,17.66a1.34,1.34,0,0,1-.43.94A5.19,5.19,0,0,1,166.09,195.6Z"/><path class="cls-3" d="M169.22,176.93l.34,16.57a.89.89,0,0,1-.29.59,4.76,4.76,0,0,1-3.18,1,5.81,5.81,0,0,1-1-.08l-9.58-1.48c-1.47-.22-2.3-.86-2.45-1.36,0-.09-.11-.37.35-.8l15.82-14.45Zm.94-2.2-17.43,15.92c-1.6,1.47-.28,3.42,2.62,3.87l9.58,1.48a7.65,7.65,0,0,0,1.16.09c2.4,0,4.48-1.14,4.45-2.61l-.38-18.75Z"/><path class="cls-4" d="M179,195.14c-2,0-3.71-.82-3.95-1.86l-4.09-17.44,20.12,13.52a1.53,1.53,0,0,1,.85,1.43c-.12.72-1,1.37-2.2,1.7l-9,2.42A6.77,6.77,0,0,1,179,195.14Z"/><path class="cls-3" d="M171.7,177l19.08,12.82c.26.18.7.54.63.94s-.66,1-1.84,1.3l-9,2.42a6.17,6.17,0,0,1-1.63.21c-1.86,0-3.29-.76-3.46-1.47L171.7,177Zm-1.54-2.22,4.38,18.67c.31,1.33,2.28,2.23,4.42,2.23a7.59,7.59,0,0,0,1.89-.24l9-2.42c2.68-.72,3.43-2.72,1.5-4l-21.17-14.22Z"/><path class="cls-4" d="M197.29,187.58a6.1,6.1,0,0,1-2.76-.61l-21.92-11.51,29.56,2.8c1.81.17,2.91,1,3.2,1.64a1.1,1.1,0,0,1-.22,1.19L201,186.28A4.89,4.89,0,0,1,197.29,187.58Z"/><path class="cls-3" d="M175.06,176.19l27.06,2.56c1.6.15,2.57.8,2.8,1.34a.63.63,0,0,1-.16.69L200.58,186a4.5,4.5,0,0,1-3.29,1.12,5.52,5.52,0,0,1-2.53-.56l-19.7-10.34Zm-4.9-1.46L194.3,187.4a6.45,6.45,0,0,0,3,.68,5.34,5.34,0,0,0,4.05-1.49l4.19-5.19c1.25-1.55-.4-3.35-3.32-3.63l-32.05-3Z"/><path class="cls-4" d="M172.94,174.3l25.32-8.67a6.56,6.56,0,0,1,2.1-.34c1.81,0,3.44.69,3.88,1.63l2.56,5.53a1.08,1.08,0,0,1-.08,1.08A4.57,4.57,0,0,1,203,175Z"/><path class="cls-3" d="M200.37,165.79h0c1.81,0,3.12.69,3.42,1.34l2.56,5.53a.56.56,0,0,1,0,.6c-.39.61-1.67,1.23-3.51,1.23h0l-27.06-.62,22.7-7.77a6.13,6.13,0,0,1,2-.31Zm0-1a7.24,7.24,0,0,0-2.27.36l-27.94,9.57,32.6.75h.18c2.92,0,5.07-1.6,4.31-3.24l-2.57-5.53c-.54-1.18-2.38-1.91-4.31-1.91Z"/><path class="cls-4" d="M181.33,157.29c.53-.87,2.09-1.48,3.8-1.48a6.25,6.25,0,0,1,2.37.43l8.11,3.28c1,.4,1.59,1,1.6,1.63s-.51,1.2-1.44,1.61l-24.36,10.87Z"/><path class="cls-3" d="M185.13,156.3h0a5.84,5.84,0,0,1,2.18.39l8.12,3.29c.77.31,1.28.77,1.28,1.18s-.43.83-1.14,1.15l-22.92,10.23,9.1-15c.44-.73,1.86-1.25,3.38-1.25Zm0-1c-1.81,0-3.56.64-4.22,1.73l-10.75,17.69L196,163.21c2.38-1.06,2.29-3.15-.17-4.15l-8.12-3.28a6.87,6.87,0,0,0-2.55-.47Z"/><path class="cls-4" d="M159.11,156.92a1.08,1.08,0,0,1-.09-1.14c.37-.72,1.59-1.48,3.49-1.58l9.92-.49c2,0,3.48.56,4.06,1.4a1.1,1.1,0,0,1,.15,1L170,173.64Z"/><path class="cls-3" d="M172.75,154.19a4.2,4.2,0,0,1,3.33,1.2.6.6,0,0,1,.1.59l-6.26,16.58-10.4-15.91a.6.6,0,0,1-.06-.65c.29-.57,1.38-1.22,3.07-1.3l9.87-.5Zm0-1h-.4l-9.87.5c-2.94.15-4.83,1.88-3.79,3.48l11.47,17.54,6.94-18.4c.62-1.62-1.54-3.13-4.35-3.13Z"/></svg>