<svg id="Layer_3" data-name="Layer 3" xmlns="http://www.w3.org/2000/svg" viewBox="0 0 564 349"><defs><style>.cls-1{fill:#ffc533;stroke:#17181b;stroke-miterlimit:10;stroke-width:18px;}.cls-2{fill:#17181b;}.cls-3{fill:#99cbd7;}.cls-4{fill:#fff;}</style></defs><rect class="cls-1" x="3" y="3" width="558" height="343" rx="22.65"/><path class="cls-2" d="M496.68,156.94l-.05,19.4c0,3.11-2.06,6.22-6.15,8.6l.06-19.4C494.62,163.16,496.67,160.05,496.68,156.94Z"/><path class="cls-3" d="M64.94,228.82c-2.71-2-4.18-4.34-4.18-6.81l0-13.73A15.75,15.75,0,0,0,65,211.91Z"/><path class="cls-2" d="M61.83,210.87A19,19,0,0,0,64,212.48l0,14.1A6.64,6.64,0,0,1,61.8,222l0-11.14Zm-2-8.27L59.73,222c0,3.16,2.07,6.32,6.24,8.72l.06-19.4c-4.17-2.41-6.26-5.57-6.25-8.72Z"/><polygon class="cls-2" points="490.54 165.54 490.48 184.94 254.19 322.25 254.25 302.85 490.54 165.54"/><polygon class="cls-3" points="67.01 230.13 67.06 213.12 223.4 303.45 223.35 320.46 67.01 230.13"/><path class="cls-2" d="M68.09,214.91l154.27,89.14,0,14.62L68.05,229.53l0-14.62ZM66,211.32,66,230.72l158.41,91.53.06-19.4L66,211.32Z"/><path class="cls-3" d="M239.31,324.8a29.81,29.81,0,0,1-13.89-3.15l.05-17.08a34.67,34.67,0,0,0,27.74,0l-.05,17.07A29.61,29.61,0,0,1,239.31,324.8Z"/><path class="cls-2" d="M226.5,306.16a34.8,34.8,0,0,0,12.86,2.35,34.4,34.4,0,0,0,12.8-2.34l0,14.85a31.41,31.41,0,0,1-25.66,0l0-14.86Zm27.75-3.31a32.82,32.82,0,0,1-29.81,0l-.06,19.4a30.5,30.5,0,0,0,14.93,3.58,30.2,30.2,0,0,0,14.88-3.58l.06-19.4Z"/><path class="cls-4" d="M239.36,305.39A29.26,29.26,0,0,1,225,302L66.54,210.42c-3.68-2.13-5.72-4.9-5.72-7.79s2-5.6,5.6-7.7L302.71,57.62a29.06,29.06,0,0,1,14.39-3.44,29.37,29.37,0,0,1,14.44,3.44L490,149.15c3.67,2.12,5.69,4.87,5.7,7.76s-2,5.62-5.64,7.73L253.73,302A29.06,29.06,0,0,1,239.36,305.39Z"/><path class="cls-2" d="M317.1,53.14v2.08A28.31,28.31,0,0,1,331,58.52l158.41,91.53c3.34,1.92,5.17,4.36,5.18,6.86s-1.82,4.91-5.12,6.83L253.21,301.06a28,28,0,0,1-13.85,3.3,28.32,28.32,0,0,1-13.88-3.3L67.06,209.52c-3.35-1.93-5.2-4.38-5.2-6.89s1.8-4.89,5.08-6.8L303.23,58.51a28.17,28.17,0,0,1,13.87-3.29V53.14Zm0,0a30.26,30.26,0,0,0-14.91,3.58L65.9,194c-8.22,4.77-8.14,12.51.13,17.28l158.41,91.53a32.82,32.82,0,0,0,29.81,0L490.54,165.54c8.21-4.78,8.2-12.51-.07-17.29L332.06,56.72a30.56,30.56,0,0,0-15-3.58Z"/><path class="cls-3" d="M253.28,238.21A25.51,25.51,0,0,1,237.41,233c-4.56-3.63-6.74-7.39-6.45-11.18.36-4.9,4.77-9.12,8.78-11.43a27.14,27.14,0,0,1,6.38-2.35c4.39-1.2,8.92-2.45,9.7-8.06,4,3.4,14.4,13.24,16.06,24.49a9.15,9.15,0,0,1-2.27,7.57C266.34,235.86,260.08,238.21,253.28,238.21Z"/><path class="cls-2" d="M256.44,201.94c4.49,4.06,13,12.87,14.42,22.72a8.15,8.15,0,0,1-2,6.74c-3.07,3.56-9,5.77-15.54,5.77a24.48,24.48,0,0,1-15.22-4.94c-4.28-3.4-6.32-6.86-6.07-10.29.33-4.5,4.49-8.43,8.27-10.61a25.8,25.8,0,0,1,6.13-2.25c3.87-1.06,8.5-2.33,10.05-7.14Zm-1.54-4c.18,9.66-9,7.77-15.68,11.61-6.41,3.7-16,13.56-2.45,24.32a26.53,26.53,0,0,0,16.51,5.39c10.9,0,21-5.89,19.63-14.89-2.14-14.48-18-26.43-18-26.43Z"/><path class="cls-2" d="M254.8,239.2a35.7,35.7,0,0,0,3.22-14,47.27,47.27,0,0,0-1.79-14.1,58,58,0,0,0-2.83-7.73,5.45,5.45,0,0,1-.46.5,58.76,58.76,0,0,1,1.87,7.56,44.89,44.89,0,0,1,.31,13.53,32.09,32.09,0,0,1-4.26,12.42c-.31.58-.69,1.11-1,1.65A29.73,29.73,0,0,0,254.8,239.2Z"/><path class="cls-2" d="M244.47,225.93a40,40,0,0,0,4.62-13.62,55.89,55.89,0,0,0,.6-6.43c-.27.11-.56.21-.85.31a54.49,54.49,0,0,1-1.17,5.82A38.15,38.15,0,0,1,242,224.36a24.42,24.42,0,0,1-7.84,7.15,26.39,26.39,0,0,0,2.58,2.34c.18.15.39.26.58.41A27.55,27.55,0,0,0,244.47,225.93Z"/><path class="cls-2" d="M265.67,220.56a81.63,81.63,0,0,1,2.19,12.26c.07.7.08,1.41.13,2.11a12.94,12.94,0,0,0,3.82-4.33,91.83,91.83,0,0,0-3.38-10.95,76.48,76.48,0,0,0-5.73-11.58,52.58,52.58,0,0,0-7.8-10.15,52.22,52.22,0,0,1,6.52,10.83A75,75,0,0,1,265.67,220.56Z"/><path class="cls-3" d="M245.73,286.81a25.47,25.47,0,0,1-15.86-5.16c-4.57-3.63-6.74-7.39-6.46-11.19.36-4.89,4.77-9.11,8.78-11.42a26.29,26.29,0,0,1,6.38-2.35c4.4-1.21,8.92-2.45,9.7-8.07,4,3.4,14.41,13.25,16.06,24.49a9.11,9.11,0,0,1-2.27,7.57C258.79,284.46,252.54,286.81,245.73,286.81Z"/><path class="cls-2" d="M248.9,250.55c4.49,4,13,12.86,14.41,22.71a8.1,8.1,0,0,1-2,6.74c-3.07,3.56-9,5.77-15.54,5.77a24.42,24.42,0,0,1-15.22-4.94c-4.28-3.4-6.32-6.86-6.07-10.29.34-4.49,4.49-8.42,8.27-10.61a26.47,26.47,0,0,1,6.14-2.24c3.86-1.06,8.5-2.34,10.05-7.14Zm-1.55-4c.19,9.65-9,7.77-15.68,11.61-6.41,3.7-16,13.55-2.45,24.32a26.61,26.61,0,0,0,16.51,5.39c10.91,0,21-5.89,19.63-14.89-2.13-14.48-18-26.43-18-26.43Z"/><path class="cls-2" d="M247.25,287.81a35.7,35.7,0,0,0,3.22-14,46.9,46.9,0,0,0-1.79-14.1,58.18,58.18,0,0,0-2.83-7.74,4.51,4.51,0,0,1-.46.51,58.61,58.61,0,0,1,1.87,7.55,45,45,0,0,1,.31,13.54A32.14,32.14,0,0,1,243.31,286a19,19,0,0,1-1,1.65A30.88,30.88,0,0,0,247.25,287.81Z"/><path class="cls-2" d="M236.92,274.54a40.29,40.29,0,0,0,4.63-13.62,58.15,58.15,0,0,0,.59-6.44c-.27.11-.56.21-.85.31a54.18,54.18,0,0,1-1.17,5.83A38.1,38.1,0,0,1,234.48,273a24.42,24.42,0,0,1-7.84,7.15,26.31,26.31,0,0,0,2.58,2.35c.19.15.4.26.59.4A27.6,27.6,0,0,0,236.92,274.54Z"/><path class="cls-2" d="M258.12,269.16a81.76,81.76,0,0,1,2.19,12.27c.08.7.08,1.4.14,2.11a12.94,12.94,0,0,0,3.81-4.34,89.34,89.34,0,0,0-3.38-10.94,76.08,76.08,0,0,0-5.72-11.59,53.28,53.28,0,0,0-7.81-10.14,52,52,0,0,1,6.52,10.83A75.24,75.24,0,0,1,258.12,269.16Z"/><path class="cls-3" d="M197.63,255.47a25.5,25.5,0,0,1-15.87-5.16c-4.56-3.63-6.73-7.39-6.45-11.18.36-4.9,4.77-9.12,8.78-11.43a26.71,26.71,0,0,1,6.38-2.35c4.39-1.21,8.92-2.45,9.7-8.07,4,3.4,14.4,13.25,16.06,24.49a9.1,9.1,0,0,1-2.27,7.57C210.69,253.13,204.44,255.47,197.63,255.47Z"/><path class="cls-2" d="M200.79,219.21c4.49,4,13,12.86,14.42,22.71a8.16,8.16,0,0,1-2,6.75c-3.07,3.56-9,5.77-15.54,5.77a24.48,24.48,0,0,1-15.22-4.94c-4.28-3.4-6.32-6.87-6.07-10.3.33-4.49,4.49-8.42,8.27-10.6a25.8,25.8,0,0,1,6.13-2.25c3.87-1.06,8.5-2.34,10-7.14Zm-1.54-4c.19,9.66-9,7.77-15.68,11.61-6.41,3.7-16,13.55-2.45,24.32a26.59,26.59,0,0,0,16.51,5.39c10.9,0,21-5.89,19.63-14.89-2.14-14.48-18-26.43-18-26.43Z"/><path class="cls-2" d="M199.15,256.47a35.7,35.7,0,0,0,3.22-14,47.22,47.22,0,0,0-1.79-14.1,58,58,0,0,0-2.83-7.73,5.45,5.45,0,0,1-.46.5,58.61,58.61,0,0,1,1.87,7.55,45,45,0,0,1,.31,13.54,32.14,32.14,0,0,1-4.26,12.42c-.31.58-.69,1.11-1,1.65A30.88,30.88,0,0,0,199.15,256.47Z"/><path class="cls-2" d="M188.82,243.2a40.06,40.06,0,0,0,4.62-13.62,55.89,55.89,0,0,0,.6-6.43c-.27.11-.56.2-.85.3a54.18,54.18,0,0,1-1.17,5.83,38,38,0,0,1-5.64,12.34,24.46,24.46,0,0,1-7.84,7.16,26.39,26.39,0,0,0,2.58,2.34c.18.15.39.26.58.4A27.49,27.49,0,0,0,188.82,243.2Z"/><path class="cls-2" d="M210,237.83a81.41,81.41,0,0,1,2.19,12.26c.07.7.08,1.41.13,2.11a12.86,12.86,0,0,0,3.82-4.34,91.68,91.68,0,0,0-3.38-10.94,76.13,76.13,0,0,0-5.73-11.59,52.83,52.83,0,0,0-7.8-10.14A52,52,0,0,1,205.77,226,75,75,0,0,1,210,237.83Z"/><path class="cls-3" d="M352.44,34.17,330.3,21.39c-5.87-3.39-11.22-3.69-15.09-1.45l-38.5,22.38c3.87-2.25,9.22-2,15.09,1.44L314,56.54c6.66,3.85,12.61,10.86,16.5,18.67L369,53C365.14,45.13,359.15,38,352.44,34.17Z"/><path class="cls-2" d="M369,53,330.45,75.21a41.35,41.35,0,0,1,4.67,18L335,122.74c0,2.05-.73,3.49-1.9,4.17l38.5-22.37c1.16-.68,1.89-2.12,1.9-4.17l.08-29.53A41,41,0,0,0,369,53Z"/><path class="cls-3" d="M331.42,126.83a5.48,5.48,0,0,1-2.64-.81L277.15,96.21a13.74,13.74,0,0,1-6.22-10.78L271,55.9c0-8.95,4.36-14.51,11.31-14.51a18.58,18.58,0,0,1,9.21,2.82L313.69,57c11.57,6.68,20.95,22.93,20.91,36.22l-.09,29.53C334.51,125.26,333.32,126.83,331.42,126.83Z"/><path class="cls-2" d="M282.33,41.91h0a18.31,18.31,0,0,1,8.95,2.75l22.15,12.78c11.42,6.6,20.68,22.64,20.65,35.76L334,122.74c0,2.24-1,3.58-2.57,3.58a4.93,4.93,0,0,1-2.38-.75L277.41,95.76a13.36,13.36,0,0,1-6-10.33l.08-29.53c0-8.63,4.17-14,10.8-14Zm0-1c-7,0-11.81,5.51-11.83,15l-.09,29.53a14.27,14.27,0,0,0,6.49,11.23l51.62,29.81a5.89,5.89,0,0,0,2.9.88c2.13,0,3.6-1.69,3.61-4.61l.09-29.53c0-13.43-9.49-29.92-21.17-36.67L291.8,43.76a19.2,19.2,0,0,0-9.47-2.89Z"/><path class="cls-4" d="M328,121.13a4.22,4.22,0,0,1-2-.64L280.52,94.26a11.62,11.62,0,0,1-5.19-9l.07-26c0-7.53,3.62-12.2,9.38-12.2a16.07,16.07,0,0,1,7.82,2.4l19.49,11.26c10,5.78,18.14,19.85,18.11,31.36l-.07,26C330.12,120,329.32,121.13,328,121.13Z"/><path class="cls-2" d="M284.78,48.13h0a15,15,0,0,1,7.3,2.26l19.49,11.26c9.57,5.52,17.62,19.47,17.59,30.46l-.07,26c0,.74-.15,2-1.1,2a3.18,3.18,0,0,1-1.52-.5L281,93.36a10.48,10.48,0,0,1-4.66-8.08l.07-26c0-7,3.14-11.16,8.34-11.16Zm0-2.07c-6.13,0-10.39,4.85-10.41,13.22l-.08,26A12.56,12.56,0,0,0,280,95.15l45.44,26.24a5.14,5.14,0,0,0,2.55.78c1.87,0,3.17-1.49,3.17-4.06l.08-26c0-11.82-8.35-26.34-18.63-32.27L293.12,48.6a16.87,16.87,0,0,0-8.34-2.54Z"/><path class="cls-3" d="M321.66,113.65a4.87,4.87,0,0,1-2.43-.72l-34-19.65A10.42,10.42,0,0,1,280.4,85l.06-19.47c0-6.64,3.48-10.94,8.84-10.94a13.67,13.67,0,0,1,6.76,2L310.66,65c8,4.62,14.49,15.87,14.47,25.07l-.06,19.47C325.06,112,323.69,113.65,321.66,113.65Z"/><path class="cls-2" d="M289.29,55.61a12.69,12.69,0,0,1,6.25,1.9l14.6,8.43c7.7,4.44,14,15.32,13.95,24.17L324,109.57c0,1.93-1,3.05-2.37,3.05a3.88,3.88,0,0,1-1.92-.59l-34-19.65a9.42,9.42,0,0,1-4.27-7.4l.05-19.46c0-6.28,3.21-9.91,7.8-9.91Zm0-2.08h0c-6,0-9.86,4.7-9.88,12L279.36,85a11.55,11.55,0,0,0,5.32,9.2l34,19.65a5.9,5.9,0,0,0,3,.86c2.61,0,4.44-2.1,4.45-5.11l.05-19.47c0-9.53-6.69-21.18-15-26l-14.59-8.43a14.73,14.73,0,0,0-7.28-2.18Z"/><path class="cls-2" d="M310.14,65.94c7.7,4.44,14,15.32,13.95,24.17L324,109.57c0,2.72-1.93,3.82-4.29,2.46l-34-19.65a9.42,9.42,0,0,1-4.27-7.4l.05-19.47c0-8.84,6.36-12.44,14.05-8Z"/><path class="cls-3" d="M373.55,91.39V86.76a105.79,105.79,0,0,1-33.88,30.52c-1.5.87-3.08,1.66-4.64,2.46v3s0,.06,0,.1c2.05-1,4.07-2.06,6-3.19A109.39,109.39,0,0,0,373.55,91.39Z"/><path class="cls-3" d="M373.59,76.55l0-5.71v0c-8,16-21,29.54-38,39.39-.17.09-.35.17-.52.27v3.09c.62-.34,1.28-.64,1.89-1C352.86,103.37,365.25,91,373.59,76.55Z"/><path class="cls-3" d="M372,60.71c-.4-1.37-.88-2.74-1.42-4.1-6,17.88-18.22,33.25-35.53,44.25v3.22C352.65,93.33,365.32,78.29,372,60.71Z"/><path class="cls-4" d="M365,46.21a72.35,72.35,0,0,1-2.92,10l3.63-2.14q.75-2.31,1.34-4.67C366.39,48.29,365.7,47.24,365,46.21Z"/><path class="cls-3" d="M362.06,56.19A75.72,75.72,0,0,1,335,91c0,.74.08,1.47.08,2.2V94.3C350,84,360.51,70.06,365.69,54.05Z"/><path class="cls-4" d="M358,38.26a64.12,64.12,0,0,1-8.54,25.29l4.64-2.77a67,67,0,0,0,6.35-20.14C359.64,39.8,358.83,39,358,38.26Z"/><path class="cls-3" d="M349.45,63.55a69,69,0,0,1-16.2,18.51c.3,1,.56,1.91.79,2.86a70.87,70.87,0,0,0,20-24.14Z"/><path class="cls-4" d="M352.44,34.17l-2.24-1.29c-.67,16.06-7.86,30.54-20.29,41.31.17.34.37.67.54,1L338,70a59.12,59.12,0,0,0,14.86-35.57C352.73,34.37,352.59,34.26,352.44,34.17Z"/><path class="cls-4" d="M330.45,75.21c.25.5.48,1,.72,1.53A66,66,0,0,0,338,70Z"/><path class="cls-4" d="M344.82,30.39c0-.21,0-.42,0-.63L342,28.15c0,.75.07,1.49.07,2.24,0,14.18-5.95,27.07-16.62,36.76.55.73,1.08,1.48,1.6,2.24C338.46,59.16,344.82,45.48,344.82,30.39Z"/><path class="cls-4" d="M336.63,30.39a44.5,44.5,0,0,0-.36-5.56l-3-1.76a41.27,41.27,0,0,1,.68,7.32c0,11.77-5,22.52-13.93,30.68.67.61,1.32,1.25,2,1.92C331.37,54.33,336.63,42.91,336.63,30.39Z"/><path class="cls-4" d="M328.44,30.39a34.4,34.4,0,0,0-1.7-10.68,18.2,18.2,0,0,0-3.23-.93,31.85,31.85,0,0,1,2.2,11.61c0,9.9-4.48,19-12.5,25.73l.74.42c.56.33,1.12.71,1.68,1.08C323.85,50.41,328.44,40.85,328.44,30.39Z"/><path class="cls-4" d="M320.25,30.39A26.32,26.32,0,0,0,317.61,19a10.34,10.34,0,0,0-2.4,1l-.13.08a23.54,23.54,0,0,1,2.43,10.37c0,8.31-4.35,15.91-12,21.28l2.6,1.5C315.87,47.33,320.25,39.24,320.25,30.39Z"/><path class="cls-4" d="M312.05,30.4a18,18,0,0,0-1.71-7.63L308,24.16a15.35,15.35,0,0,1,1.37,6.24c0,6.23-3.86,12-10.6,15.93-.42.24-.86.45-1.29.68l2.78,1.6C307.73,44.22,312.05,37.59,312.05,30.4Z"/><path class="cls-4" d="M303.86,30.4a9.89,9.89,0,0,0-.65-3.48l-2.41,1.4a7.35,7.35,0,0,1,.33,2.08c0,3.27-2.31,6.41-6.51,8.83a27.64,27.64,0,0,1-6.79,2.68,24.29,24.29,0,0,1,3.71,1.71,28.18,28.18,0,0,0,4.45-2C301.06,38.67,303.86,34.69,303.86,30.4Z"/><path class="cls-2" d="M320.83,19.54a18.34,18.34,0,0,1,8.95,2.75l22.14,12.78c6.08,3.51,11.78,9.86,15.73,17.52L330.88,73.76c-4.13-7.89-10.07-14.45-16.41-18.12L292.32,42.86a20.72,20.72,0,0,0-9.3-3l32.71-19a10,10,0,0,1,5.1-1.3Zm0-1a11.13,11.13,0,0,0-5.62,1.44l-38.5,22.38a11,11,0,0,1,5.62-1.45,19.2,19.2,0,0,1,9.47,2.89L314,56.54c6.66,3.85,12.61,10.86,16.5,18.67L369,53c-3.88-7.87-9.87-15-16.58-18.83L330.3,21.39a19.23,19.23,0,0,0-9.47-2.89Z"/><path class="cls-2" d="M368.57,54.45a39.63,39.63,0,0,1,4,16.38l-.08,29.53c0,1.6-.5,2.77-1.38,3.29L336,124.07a9.33,9.33,0,0,0,.1-1.33l.08-29.53a41.9,41.9,0,0,0-4.35-17.59l36.77-21.17ZM369,53,330.45,75.21a41.35,41.35,0,0,1,4.67,18L335,122.74c0,2.05-.73,3.49-1.9,4.17l38.5-22.37c1.16-.68,1.89-2.12,1.9-4.17l.08-29.53A41,41,0,0,0,369,53Z"/><path class="cls-3" d="M304,100.94c0-9.56-7.76-21.79-17.32-27.31a21.26,21.26,0,0,0-5.22-2.21l0,13.56a9.42,9.42,0,0,0,4.27,7.4l18.18,10.5A15,15,0,0,0,304,100.94Z"/><path class="cls-4" d="M310.14,65.94l-10.36-6a12.12,12.12,0,0,0-1.37,6c0,9.56,7.75,21.79,17.32,27.31a17.86,17.86,0,0,0,8.34,2.67l0-5.8C324.11,81.26,317.84,70.38,310.14,65.94Z"/><path class="cls-3" d="M321.11,101.31c0,1.23-1,1.65-2.22.94a4.6,4.6,0,0,1-2.22-3.5c0-1.23,1-1.65,2.22-.94A4.6,4.6,0,0,1,321.11,101.31Z"/><path class="cls-3" d="M319.28,107.59c0,1.23-1,1.65-2.22.94a4.6,4.6,0,0,1-2.22-3.51c0-1.23,1-1.65,2.22-.94A4.6,4.6,0,0,1,319.28,107.59Z"/><path class="cls-4" d="M311.44,99.76c0,1.23-1,1.65-2.23.94A4.63,4.63,0,0,1,307,97.19c0-1.22,1-1.64,2.22-.93A4.58,4.58,0,0,1,311.44,99.76Z"/><path class="cls-3" d="M296.18,62.6c0,1.23-1,1.65-2.22.94A4.62,4.62,0,0,1,291.73,60c0-1.22,1-1.64,2.23-.93A4.6,4.6,0,0,1,296.18,62.6Z"/><path class="cls-4" d="M287.5,67.94c0,1.22-1,1.64-2.22.93a4.58,4.58,0,0,1-2.23-3.5c0-1.23,1-1.65,2.23-.94A4.63,4.63,0,0,1,287.5,67.94Z"/><path class="cls-3" d="M296.18,71.3c0,1.23-1,1.65-2.22.94a4.62,4.62,0,0,1-2.23-3.5c0-1.23,1-1.65,2.23-.94A4.6,4.6,0,0,1,296.18,71.3Z"/><path class="cls-3" d="M281,75.4,258.89,62.61c-5.87-3.39-11.22-3.69-15.09-1.44L205.3,83.54c3.87-2.25,9.22-2,15.1,1.44l22.14,12.79c6.66,3.84,12.62,10.86,16.5,18.66l38.58-22.21C293.73,86.35,287.74,79.27,281,75.4Z"/><path class="cls-2" d="M297.62,94.22,259,116.43a41.42,41.42,0,0,1,4.67,18L263.62,164c0,2.05-.73,3.49-1.9,4.17l38.5-22.37c1.17-.68,1.89-2.12,1.9-4.18l.08-29.53A41.2,41.2,0,0,0,297.62,94.22Z"/><path class="cls-3" d="M260,168.06a5.37,5.37,0,0,1-2.64-.82l-51.63-29.8a13.73,13.73,0,0,1-6.22-10.78l.08-29.53c0-8.95,4.36-14.51,11.31-14.51a18.62,18.62,0,0,1,9.22,2.81l22.14,12.79c11.57,6.68,21,22.92,20.91,36.21L263.11,164C263.1,166.49,261.91,168.06,260,168.06Z"/><path class="cls-2" d="M210.92,83.14h0a18.46,18.46,0,0,1,9,2.74L242,98.67c11.42,6.59,20.69,22.64,20.65,35.76L262.59,164c0,2.24-1,3.58-2.57,3.58a5,5,0,0,1-2.38-.74L206,137a13.35,13.35,0,0,1-6-10.33l.09-29.53c0-8.63,4.16-14,10.79-14Zm0-1c-7,0-11.8,5.51-11.83,15L199,126.66a14.3,14.3,0,0,0,6.48,11.23l51.63,29.8a5.89,5.89,0,0,0,2.9.89c2.13,0,3.6-1.69,3.6-4.61l.09-29.54c0-13.42-9.49-29.92-21.17-36.66L220.4,85a19.26,19.26,0,0,0-9.48-2.89Z"/><path class="cls-4" d="M256.58,162.36a4.18,4.18,0,0,1-2-.64l-45.44-26.24a11.62,11.62,0,0,1-5.19-9l.08-26c0-7.52,3.61-12.19,9.37-12.19a16,16,0,0,1,7.82,2.4L240.68,102c10,5.79,18.15,19.86,18.11,31.37l-.07,26C258.71,161.23,257.91,162.36,256.58,162.36Z"/><path class="cls-2" d="M213.37,89.36h0a15,15,0,0,1,7.3,2.26l19.49,11.25c9.57,5.53,17.63,19.48,17.59,30.47l-.07,26c0,.74-.15,2-1.1,2a3.26,3.26,0,0,1-1.51-.5l-45.44-26.23a10.46,10.46,0,0,1-4.67-8.08l.07-26c0-7,3.14-11.16,8.34-11.16Zm0-2.08c-6.13,0-10.39,4.85-10.41,13.23l-.07,26a12.57,12.57,0,0,0,5.7,9.88L254,162.62a5.23,5.23,0,0,0,2.55.77c1.87,0,3.17-1.48,3.18-4.06l.07-26c0-11.81-8.35-26.33-18.63-32.26L221.71,89.82a17,17,0,0,0-8.34-2.54Z"/><path class="cls-3" d="M250.25,154.88a4.87,4.87,0,0,1-2.43-.72l-34-19.65a10.44,10.44,0,0,1-4.8-8.3l.06-19.47c0-6.65,3.49-10.94,8.84-10.94a13.67,13.67,0,0,1,6.76,2l14.6,8.43c8,4.62,14.49,15.87,14.47,25.07l-.05,19.46C253.66,153.24,252.29,154.88,250.25,154.88Z"/><path class="cls-2" d="M217.89,96.84a12.66,12.66,0,0,1,6.24,1.9l14.6,8.43c7.7,4.44,14,15.31,14,24.16l-.05,19.47c0,1.93-1,3-2.38,3a3.9,3.9,0,0,1-1.91-.58l-34-19.65a9.42,9.42,0,0,1-4.28-7.4l.06-19.47c0-6.27,3.2-9.9,7.8-9.9Zm0-2.08h0c-6,0-9.86,4.7-9.88,12l0,19.46a11.56,11.56,0,0,0,5.31,9.21l34,19.65a5.9,5.9,0,0,0,2.95.86c2.61,0,4.44-2.1,4.45-5.11l.06-19.47c0-9.53-6.7-21.18-15-26l-14.6-8.43a14.63,14.63,0,0,0-7.28-2.18Z"/><path class="cls-2" d="M238.73,107.17c7.7,4.44,14,15.31,14,24.16l-.05,19.47c0,2.72-1.94,3.82-4.29,2.46l-34-19.65a9.42,9.42,0,0,1-4.28-7.4l.06-19.47c0-8.85,6.35-12.44,14-8Z"/><path class="cls-3" d="M302.14,132.61l0-4.63a106,106,0,0,1-33.88,30.53c-1.51.87-3.09,1.66-4.65,2.46v3s0,.06,0,.1c2.05-1,4.07-2.07,6-3.2A109.39,109.39,0,0,0,302.14,132.61Z"/><path class="cls-3" d="M302.19,117.77V112c-8,16-21,29.54-38,39.39l-.52.28v3.09c.63-.34,1.28-.65,1.89-1C281.45,144.59,293.85,132.24,302.19,117.77Z"/><path class="cls-3" d="M300.63,101.93a43.12,43.12,0,0,0-1.42-4.09c-6,17.88-18.22,33.25-35.52,44.25v3.22C281.25,134.55,293.91,119.51,300.63,101.93Z"/><path class="cls-4" d="M293.57,87.44a71.81,71.81,0,0,1-2.92,10l3.63-2.13Q295,93,295.63,90.6C295,89.52,294.29,88.47,293.57,87.44Z"/><path class="cls-3" d="M290.65,97.41a75.56,75.56,0,0,1-27,34.82c.05.75.08,1.48.08,2.2v1.09c14.91-10.31,25.41-24.23,30.58-40.24Z"/><path class="cls-4" d="M286.58,79.49A63.86,63.86,0,0,1,278,104.78l4.64-2.77A66.65,66.65,0,0,0,289,81.86C288.24,81,287.42,80.24,286.58,79.49Z"/><path class="cls-3" d="M278,104.78a68.86,68.86,0,0,1-16.2,18.51c.3.95.56,1.91.8,2.86a71,71,0,0,0,20-24.14Z"/><path class="cls-4" d="M281,75.4l-2.23-1.29c-.68,16.06-7.86,30.54-20.3,41.31.18.34.37.67.54,1l7.58-5.18a59.22,59.22,0,0,0,14.85-35.57C281.33,75.59,281.18,75.48,281,75.4Z"/><path class="cls-4" d="M259,116.43c.25.51.48,1,.72,1.53a67,67,0,0,0,6.86-6.71Z"/><path class="cls-4" d="M273.42,71.62c0-.21,0-.42,0-.63l-2.78-1.61c0,.74.08,1.49.08,2.24,0,14.18-5.95,27.06-16.63,36.76.55.73,1.09,1.48,1.6,2.24C267.06,100.39,273.42,86.7,273.42,71.62Z"/><path class="cls-4" d="M265.22,71.62a44.5,44.5,0,0,0-.36-5.56l-3.05-1.76a40.35,40.35,0,0,1,.68,7.32c0,11.77-5,22.52-13.92,30.68q1,.92,2,1.92C260,95.56,265.22,84.14,265.22,71.62Z"/><path class="cls-4" d="M257,71.62a34.69,34.69,0,0,0-1.69-10.68,17.85,17.85,0,0,0-3.23-.93,31.81,31.81,0,0,1,2.19,11.61c0,9.9-4.48,19-12.5,25.72l.74.43c.57.33,1.12.71,1.68,1.08C252.44,91.64,257,82.07,257,71.62Z"/><path class="cls-4" d="M248.84,71.62a26.32,26.32,0,0,0-2.64-11.43,10.52,10.52,0,0,0-2.4,1l-.13.07a23.59,23.59,0,0,1,2.44,10.38c0,8.3-4.36,15.9-12,21.28l2.6,1.5C244.46,88.55,248.84,80.46,248.84,71.62Z"/><path class="cls-4" d="M240.65,71.62A18.15,18.15,0,0,0,238.94,64l-2.4,1.39a15.34,15.34,0,0,1,1.37,6.23c0,6.24-3.86,12-10.6,15.94-.41.23-.85.45-1.29.67l2.78,1.61C236.33,85.45,240.65,78.82,240.65,71.62Z"/><path class="cls-4" d="M232.45,71.62a9.94,9.94,0,0,0-.65-3.48l-2.41,1.41a7,7,0,0,1,.33,2.07c0,3.28-2.31,6.42-6.5,8.84a28.2,28.2,0,0,1-6.79,2.68,24.2,24.2,0,0,1,3.7,1.71,28.68,28.68,0,0,0,4.45-2C229.66,79.89,232.45,75.92,232.45,71.62Z"/><path class="cls-2" d="M249.42,60.76a18.34,18.34,0,0,1,9,2.75L280.52,76.3c6.08,3.51,11.77,9.86,15.73,17.51L259.47,115c-4.13-7.89-10.07-14.46-16.41-18.12L220.92,84.09a20.55,20.55,0,0,0-9.31-3l32.71-19a10,10,0,0,1,5.1-1.31Zm0-1a11,11,0,0,0-5.62,1.44L205.3,83.54a11.08,11.08,0,0,1,5.62-1.44A19.34,19.34,0,0,1,220.4,85l22.14,12.79c6.66,3.84,12.62,10.86,16.5,18.66l38.58-22.21c-3.89-7.87-9.88-15-16.59-18.82L258.89,62.61a19.28,19.28,0,0,0-9.47-2.88Z"/><path class="cls-2" d="M297.16,95.68a39.81,39.81,0,0,1,4,16.38l-.09,29.53c0,1.6-.49,2.77-1.38,3.28l-35.14,20.42a8,8,0,0,0,.1-1.32l.09-29.53a42.13,42.13,0,0,0-4.35-17.59l36.76-21.17Zm.46-1.46L259,116.43a41.42,41.42,0,0,1,4.67,18L263.62,164c0,2.05-.73,3.49-1.9,4.17l38.5-22.37c1.17-.68,1.89-2.12,1.9-4.18l.08-29.53a41.2,41.2,0,0,0-4.58-17.84Z"/><path class="cls-3" d="M232.61,142.16c0-9.56-7.75-21.78-17.31-27.3a21.09,21.09,0,0,0-5.23-2.21l0,13.56a9.42,9.42,0,0,0,4.28,7.4l18.17,10.49A14.8,14.8,0,0,0,232.61,142.16Z"/><path class="cls-4" d="M238.73,107.17l-10.35-6a12,12,0,0,0-1.37,6c0,9.56,7.75,21.79,17.31,27.31a18.13,18.13,0,0,0,8.35,2.67v-5.81C252.71,122.48,246.43,111.61,238.73,107.17Z"/><path class="cls-3" d="M249.7,142.54c0,1.23-1,1.65-2.22.94a4.6,4.6,0,0,1-2.22-3.51c0-1.22,1-1.64,2.22-.94A4.6,4.6,0,0,1,249.7,142.54Z"/><path class="cls-3" d="M247.87,148.81c0,1.23-1,1.65-2.22.94a4.57,4.57,0,0,1-2.22-3.5c0-1.23,1-1.65,2.22-.94A4.6,4.6,0,0,1,247.87,148.81Z"/><path class="cls-4" d="M240,141c0,1.23-1,1.65-2.22.94a4.6,4.6,0,0,1-2.22-3.51c0-1.23,1-1.65,2.22-.94A4.6,4.6,0,0,1,240,141Z"/><path class="cls-3" d="M224.77,103.83c0,1.23-1,1.65-2.22.94a4.6,4.6,0,0,1-2.22-3.51c0-1.23,1-1.65,2.22-.94A4.6,4.6,0,0,1,224.77,103.83Z"/><path class="cls-4" d="M216.09,109.16c0,1.23-1,1.65-2.22.94a4.6,4.6,0,0,1-2.22-3.5c0-1.23,1-1.65,2.22-.94A4.59,4.59,0,0,1,216.09,109.16Z"/><path class="cls-3" d="M224.77,112.53c0,1.23-1,1.65-2.22.94a4.6,4.6,0,0,1-2.22-3.51c0-1.23,1-1.65,2.22-.94A4.6,4.6,0,0,1,224.77,112.53Z"/><path class="cls-3" d="M209.63,116.63l-22.15-12.79c-5.87-3.39-11.22-3.69-15.09-1.44L133.9,124.77c3.87-2.25,9.22-2,15.09,1.44L171.13,139c6.66,3.84,12.62,10.85,16.5,18.66l38.58-22.21C222.33,127.58,216.33,120.5,209.63,116.63Z"/><path class="cls-2" d="M226.21,135.45l-38.58,22.21a41.14,41.14,0,0,1,4.67,18l-.08,29.53c0,2.05-.73,3.5-1.9,4.18L228.81,187c1.17-.68,1.9-2.13,1.9-4.18l.09-29.53A41.32,41.32,0,0,0,226.21,135.45Z"/><path class="cls-3" d="M188.61,209.29a5.37,5.37,0,0,1-2.64-.82l-51.63-29.81a13.72,13.72,0,0,1-6.22-10.77l.08-29.54c0-8.95,4.36-14.51,11.32-14.51a18.64,18.64,0,0,1,9.21,2.82l22.14,12.79c11.57,6.67,20.95,22.92,20.91,36.21l-.08,29.53C191.69,207.72,190.51,209.29,188.61,209.29Z"/><path class="cls-2" d="M139.52,124.36h0a18.34,18.34,0,0,1,8.95,2.75l22.14,12.78c11.43,6.6,20.69,22.64,20.65,35.77l-.08,29.53c0,2.24-1,3.58-2.57,3.58a4.9,4.9,0,0,1-2.38-.75L134.6,178.21a13.36,13.36,0,0,1-6-10.32l.08-29.53c0-8.64,4.16-14,10.8-14Zm0-1c-7,0-11.81,5.52-11.84,15l-.08,29.54a14.28,14.28,0,0,0,6.48,11.22l51.63,29.81a5.92,5.92,0,0,0,2.9.89c2.13,0,3.6-1.69,3.61-4.62l.08-29.53c0-13.42-9.48-29.92-21.17-36.66L149,126.21a19.2,19.2,0,0,0-9.47-2.89Z"/><path class="cls-4" d="M185.17,203.58a4.3,4.3,0,0,1-2-.63L137.7,176.71a11.61,11.61,0,0,1-5.18-9l.07-26c0-7.52,3.61-12.19,9.38-12.19a16.1,16.1,0,0,1,7.82,2.4l19.48,11.25c10,5.78,18.15,19.86,18.11,31.37l-.07,26C187.3,202.45,186.51,203.58,185.17,203.58Z"/><path class="cls-2" d="M142,130.58h0a15.07,15.07,0,0,1,7.3,2.27l19.48,11.25c9.57,5.52,17.63,19.47,17.6,30.46l-.08,26c0,.74-.14,2-1.1,2a3.29,3.29,0,0,1-1.51-.5l-45.44-26.24a10.46,10.46,0,0,1-4.67-8.08l.08-26c0-7,3.13-11.16,8.34-11.16Zm0-2.07c-6.14,0-10.39,4.85-10.42,13.23l-.07,26a12.58,12.58,0,0,0,5.7,9.88l45.44,26.23a5.17,5.17,0,0,0,2.55.78c1.88,0,3.17-1.48,3.18-4.06l.07-26c0-11.81-8.35-26.33-18.63-32.27L150.3,131.05a16.94,16.94,0,0,0-8.33-2.54Z"/><path class="cls-3" d="M178.84,196.11a4.89,4.89,0,0,1-2.43-.73l-34-19.65a10.39,10.39,0,0,1-4.79-8.3l0-19.46c0-6.65,3.49-10.94,8.84-10.94a13.54,13.54,0,0,1,6.76,2l14.6,8.42c8,4.62,14.5,15.87,14.47,25.07L182.26,192C182.25,194.47,180.88,196.11,178.84,196.11Z"/><path class="cls-2" d="M146.48,138.06a12.63,12.63,0,0,1,6.24,1.9l14.6,8.43c7.7,4.45,14,15.32,14,24.17L181.22,192c0,1.93-1,3-2.38,3a4,4,0,0,1-1.91-.58l-34-19.65a9.41,9.41,0,0,1-4.27-7.4l.05-19.47c0-6.28,3.21-9.91,7.8-9.91Zm0-2.07h0c-6,0-9.85,4.7-9.87,12l-.06,19.47a11.52,11.52,0,0,0,5.31,9.2l34,19.65a5.93,5.93,0,0,0,3,.86c2.62,0,4.45-2.1,4.45-5.11l.06-19.46c0-9.54-6.7-21.19-15-26l-14.6-8.43a14.57,14.57,0,0,0-7.28-2.18Z"/><path class="cls-2" d="M167.32,148.39c7.7,4.45,14,15.32,14,24.17L181.22,192c0,2.72-1.93,3.82-4.29,2.46l-34-19.65a9.41,9.41,0,0,1-4.27-7.4l.05-19.47c0-8.85,6.36-12.44,14-8Z"/><path class="cls-3" d="M230.74,173.84v-4.63a105.88,105.88,0,0,1-33.88,30.52c-1.51.87-3.08,1.66-4.64,2.47v3s0,.07,0,.11c2-1,4.07-2.07,6-3.2A109.56,109.56,0,0,0,230.74,173.84Z"/><path class="cls-3" d="M230.78,159l0-5.71v0c-8,16-21,29.54-38,39.39-.17.1-.35.18-.52.27V196c.63-.35,1.28-.65,1.9-1C210,185.82,222.44,173.47,230.78,159Z"/><path class="cls-3" d="M229.22,143.16c-.4-1.37-.87-2.74-1.41-4.09-6,17.87-18.22,33.24-35.53,44.25v3.21C209.84,175.78,222.5,160.74,229.22,143.16Z"/><path class="cls-4" d="M222.16,128.66a71,71,0,0,1-2.92,10l3.64-2.14c.49-1.54.94-3.09,1.34-4.67C223.57,130.75,222.88,129.69,222.16,128.66Z"/><path class="cls-3" d="M219.24,138.64a75.61,75.61,0,0,1-27,34.82c.06.74.08,1.48.08,2.2v1.09c14.9-10.32,25.4-24.24,30.58-40.25Z"/><path class="cls-4" d="M215.18,120.72A64,64,0,0,1,206.63,146l4.64-2.78a66.4,66.4,0,0,0,6.35-20.14C216.83,122.26,216,121.46,215.18,120.72Z"/><path class="cls-3" d="M206.63,146a68.84,68.84,0,0,1-16.2,18.51c.31.95.57,1.9.8,2.86a71,71,0,0,0,20-24.15Z"/><path class="cls-4" d="M209.63,116.63l-2.24-1.3c-.68,16.07-7.86,30.55-20.3,41.32.18.34.37.67.54,1l7.58-5.19a59.24,59.24,0,0,0,14.86-35.56C209.92,116.82,209.78,116.71,209.63,116.63Z"/><path class="cls-4" d="M187.63,157.66c.26.51.49,1,.72,1.53a66.08,66.08,0,0,0,6.86-6.72Z"/><path class="cls-4" d="M202,112.85c0-.21,0-.42,0-.64l-2.79-1.6c0,.74.08,1.48.08,2.24,0,14.17-5.95,27.06-16.63,36.76.55.73,1.09,1.47,1.6,2.24C195.65,141.62,202,127.93,202,112.85Z"/><path class="cls-4" d="M193.82,112.85a42.56,42.56,0,0,0-.37-5.56l-3-1.76a40.27,40.27,0,0,1,.69,7.32c0,11.76-5,22.51-13.93,30.67q1,.93,2,1.92C188.56,136.78,193.82,125.36,193.82,112.85Z"/><path class="cls-4" d="M185.62,112.85a34.71,34.71,0,0,0-1.69-10.69,19.63,19.63,0,0,0-3.23-.93,31.86,31.86,0,0,1,2.19,11.62c0,9.9-4.48,19-12.5,25.72l.74.43c.57.32,1.13.71,1.68,1.08C181,132.87,185.62,123.3,185.62,112.85Z"/><path class="cls-4" d="M177.43,112.85a26.38,26.38,0,0,0-2.63-11.43,10.6,10.6,0,0,0-2.41,1l-.12.07a23.72,23.72,0,0,1,2.43,10.38c0,8.3-4.35,15.9-12,21.27l2.6,1.51C173.05,129.78,177.43,121.69,177.43,112.85Z"/><path class="cls-4" d="M169.24,112.85a18.16,18.16,0,0,0-1.71-7.63l-2.39,1.39a15.39,15.39,0,0,1,1.37,6.24c0,6.24-3.87,12-10.61,15.93-.41.24-.85.46-1.28.68l2.78,1.61C164.92,126.67,169.24,120,169.24,112.85Z"/><path class="cls-4" d="M161.05,112.85a10,10,0,0,0-.66-3.48l-2.41,1.4a7.13,7.13,0,0,1,.34,2.08c0,3.28-2.32,6.42-6.51,8.84a28.62,28.62,0,0,1-6.79,2.68,24.11,24.11,0,0,1,3.7,1.7,27.77,27.77,0,0,0,4.45-2C158.25,121.12,161.05,117.14,161.05,112.85Z"/><path class="cls-2" d="M178,102a18.38,18.38,0,0,1,9,2.75l22.14,12.78c6.08,3.51,11.77,9.87,15.73,17.52l-36.78,21.18c-4.13-7.89-10.07-14.46-16.41-18.12l-22.14-12.79a20.76,20.76,0,0,0-9.31-3l32.71-19A10,10,0,0,1,178,102Zm0-1a11.06,11.06,0,0,0-5.62,1.45L133.9,124.77a11,11,0,0,1,5.62-1.45,19.2,19.2,0,0,1,9.47,2.89L171.13,139c6.66,3.84,12.62,10.85,16.5,18.66l38.58-22.21c-3.88-7.87-9.88-14.95-16.58-18.82l-22.15-12.79A19.2,19.2,0,0,0,178,101Z"/><path class="cls-2" d="M225.76,136.91a39.79,39.79,0,0,1,4,16.38l-.09,29.53c0,1.6-.49,2.76-1.38,3.28l-35.14,20.42a8.07,8.07,0,0,0,.1-1.33l.09-29.53A42.12,42.12,0,0,0,189,158.08l36.77-21.17Zm.45-1.46-38.58,22.21a41.14,41.14,0,0,1,4.67,18l-.08,29.53c0,2.05-.73,3.5-1.9,4.18L228.81,187c1.17-.68,1.9-2.13,1.9-4.18l.09-29.53a41.32,41.32,0,0,0-4.59-17.84Z"/><path class="cls-3" d="M161.2,183.39c0-9.56-7.75-21.79-17.31-27.31a21.32,21.32,0,0,0-5.23-2.21l0,13.57a9.41,9.41,0,0,0,4.27,7.4l18.18,10.49A17.12,17.12,0,0,0,161.2,183.39Z"/><path class="cls-4" d="M167.32,148.39l-10.35-6a12.12,12.12,0,0,0-1.37,6c0,9.56,7.75,21.79,17.31,27.31a17.9,17.9,0,0,0,8.35,2.67l0-5.8C181.3,163.71,175,152.84,167.32,148.39Z"/><path class="cls-3" d="M178.3,183.77c0,1.22-1,1.64-2.23.94a4.63,4.63,0,0,1-2.22-3.51c0-1.23,1-1.65,2.22-.94A4.62,4.62,0,0,1,178.3,183.77Z"/><path class="cls-3" d="M176.47,190c0,1.23-1,1.65-2.23.94a4.63,4.63,0,0,1-2.22-3.5c0-1.23,1-1.65,2.22-.94A4.58,4.58,0,0,1,176.47,190Z"/><path class="cls-4" d="M168.62,182.21c0,1.23-1,1.65-2.22.94a4.57,4.57,0,0,1-2.22-3.5c0-1.23,1-1.65,2.22-.94A4.6,4.6,0,0,1,168.62,182.21Z"/><path class="cls-3" d="M153.36,145.05c0,1.23-1,1.65-2.22.94a4.57,4.57,0,0,1-2.22-3.5c0-1.23,1-1.65,2.22-.94A4.6,4.6,0,0,1,153.36,145.05Z"/><path class="cls-4" d="M144.69,150.39c0,1.23-1,1.65-2.23.94a4.63,4.63,0,0,1-2.22-3.51c0-1.22,1-1.65,2.22-.94A4.62,4.62,0,0,1,144.69,150.39Z"/><path class="cls-3" d="M153.36,153.76c0,1.22-1,1.64-2.22.93a4.57,4.57,0,0,1-2.22-3.5c0-1.23,1-1.65,2.22-.94A4.6,4.6,0,0,1,153.36,153.76Z"/><path class="cls-2" d="M422.36,98.87l.13.06-.11-.07Z"/><path class="cls-2" d="M439.05,114.58c0,.27-.05.55-.1.82s-.1.44-.16.66-.13.52-.22.78-.18.42-.27.63-.23.54-.38.81-.22.38-.34.57-.39.61-.61.9-.27.35-.42.53c-.33.4-.7.79-1.09,1.18-.14.13-.27.27-.42.4s-.51.43-.77.65-.47.38-.73.57-.6.41-.91.61-.64.43-1,.63l-20,11.61a26.3,26.3,0,0,1-2.43,1.23l-.73.32c-.66.27-1.34.53-2,.76l-.74.26-1.32.38-1,.27c-.47.11-.94.21-1.42.3l-.83.16L401,179.25h0c.28,0,.55-.12.83-.18.47-.1.95-.19,1.42-.3l1-.28,1.32-.37.28-.09.46-.17c.69-.23,1.37-.49,2-.77l.73-.31a26.3,26.3,0,0,0,2.43-1.23l20-11.61.31-.18c.24-.15.45-.31.68-.45s.62-.4.91-.61.48-.38.72-.58.54-.42.78-.64l.15-.12a3.58,3.58,0,0,0,.26-.29,12.12,12.12,0,0,0,1.1-1.18c.07-.08.17-.16.24-.25s.11-.18.18-.27q.33-.45.6-.9c.08-.12.18-.24.26-.37a1.89,1.89,0,0,1,.09-.21c.14-.26.26-.53.38-.8s.16-.31.22-.46,0-.12,0-.17a7.67,7.67,0,0,0,.23-.78c0-.17.11-.34.14-.52s0-.09,0-.14c.05-.27.07-.55.1-.83s.05-.34.06-.52v-.22l.11-39.63C439.11,114.08,439.07,114.33,439.05,114.58Z"/><path class="cls-3" d="M397.85,140.09c-.94.09-1.9.16-2.86.19s-1.76,0-2.64,0-1.69-.07-2.54-.13-1.67-.17-2.5-.28-1.72-.27-2.56-.45-1.81-.41-2.69-.66a32,32,0,0,1-3.13-1.06,27.59,27.59,0,0,1-3.71-1.78l-21-12.09c-5.09-2.94-7.62-6.79-7.61-10.63l-.12,39.63c0,3.84,2.53,7.69,7.62,10.63l20.95,12.09a27,27,0,0,0,3.71,1.78c1,.4,2.06.75,3.13,1.06.88.25,1.78.47,2.69.66s1.69.32,2.56.44,1.66.21,2.5.28,1.69.12,2.54.14,1.76,0,2.64,0,1.91-.1,2.86-.19c1.11-.11,2.21-.27,3.29-.46l.11-39.63C400.06,139.83,399,140,397.85,140.09Z"/><path class="cls-3" d="M393.47,139.79c-6.8,0-13.19-1.53-18-4.31l-21-12.09c-4.74-2.74-7.35-6.34-7.35-10.14s2.56-7.36,7.23-10.07l20-11.62c4.76-2.76,11.14-4.29,18-4.29s13.2,1.53,18,4.29l20.95,12.09c4.71,2.72,7.31,6.32,7.31,10.14s-2.55,7.38-7.21,10.08l-20,11.62C406.63,138.26,400.26,139.79,393.47,139.79Z"/><path class="cls-2" d="M392.35,87.79h0c6.73,0,13,1.5,17.72,4.21L431,104.1c4.54,2.62,7.05,6.06,7.05,9.69s-2.46,7-6.95,9.63l-20,11.62c-4.69,2.73-11,4.23-17.67,4.23s-13-1.51-17.73-4.23l-20.95-12.1c-4.57-2.64-7.09-6.08-7.1-9.69s2.48-7,7-9.62l20-11.62c4.68-2.72,11-4.22,17.7-4.22Zm0-1c-6.61,0-13.22,1.45-18.22,4.36l-20,11.61c-10,5.83-10,15.28.12,21.11l21,12.09c5,2.92,11.65,4.38,18.25,4.38s13.18-1.46,18.19-4.38l20-11.61c10-5.8,10-15.31-.1-21.12l-21-12.09c-5-2.9-11.63-4.35-18.24-4.35Z"/><path class="cls-4" d="M393.42,136.93a32.84,32.84,0,0,1-16.14-3.85l-19.11-11c-4.14-2.39-6.43-5.51-6.43-8.77s2.24-6.33,6.32-8.7L376.29,94a35.78,35.78,0,0,1,32.23,0l19.12,11c4.12,2.38,6.39,5.49,6.39,8.77s-2.23,6.35-6.3,8.71l-18.23,10.6A32.55,32.55,0,0,1,393.42,136.93Z"/><path class="cls-2" d="M392.4,91.17h0a31.73,31.73,0,0,1,15.6,3.7l19.12,11c3.78,2.19,5.87,5,5.87,7.87s-2.05,5.64-5.78,7.81L409,132.18a34.61,34.61,0,0,1-31.18,0l-19.12-11c-3.8-2.2-5.9-5-5.9-7.87s2.05-5.62,5.8-7.8l18.23-10.6a31.64,31.64,0,0,1,15.59-3.7Zm0-2.07c-6,0-12.07,1.33-16.63,4l-18.23,10.59c-9.16,5.33-9.11,13.94.11,19.27l19.11,11A36.65,36.65,0,0,0,410,134l18.23-10.59c9.12-5.3,9.09-14-.09-19.27L409,93.07c-4.58-2.65-10.62-4-16.64-4Z"/><path class="cls-2" d="M419.47,106.43l-7.56-4.36-6.85-4c-6.41-3.7-16.58-4-23.5-.8,0,0,0,0,0,.07a16,16,0,0,0-1.56.74l-13.74,8c-6.9,4-6.87,10.51.08,14.52l8.95,5.16,5.46,3.16c6.93,4,18.15,4,25.06,0l.41-.24h0L419.54,121C426.41,117,426.38,110.42,419.47,106.43Z"/><path class="cls-2" d="M393.28,134a27.56,27.56,0,0,1-13.58-3.31l-14.41-8.32c-4-2.33-6.26-5.55-6.27-9.07s2.19-6.71,6.18-9l13.75-8,.12-.07,0,0,1.65-.78c7.59-3.46,18.51-3.08,25.4.89l14.4,8.32c4,2.32,6.24,5.55,6.25,9.08s-2.19,6.72-6.17,9l-13.74,8A27.51,27.51,0,0,1,393.28,134Zm-10-35.2,0,0-1.27.57a9.05,9.05,0,0,0-.94.45l-13.74,8c-2.66,1.55-4.12,3.48-4.12,5.44s1.5,3.93,4.2,5.49l14.4,8.32c6.26,3.61,16.78,3.61,23,0l13.74-8c2.65-1.54,4.11-3.48,4.11-5.45s-1.49-3.93-4.17-5.48L404,99.91C398.53,96.73,389.6,96.32,383.26,98.84Z"/><path class="cls-2" d="M408.46,108.47c6.91,4,17,8.33,10.08,12.32l-12.33,7.91-.41.24c-6.91,4-18.13,4-25.06,0l-5.46-3.16.91-5.52c-6.95-4-15.24-10-8.33-14l16.78-5.72c.5-.29-3.63-3-3.08-3.24,6.92-3.16,17.09-2.9,23.5.8l6.85,4Z"/><path class="cls-3" d="M384.49,98.81a31.55,31.55,0,0,0-2.91-1.45c-.54.25-1.1.47-1.59.76l-13.74,8c-6.9,4-6.87,10.51.08,14.52l8.95,5.16a34.54,34.54,0,0,0,9.21-3.56C395.69,115.75,395.69,105.27,384.49,98.81Z"/><path class="cls-4" d="M419.47,106.43l-7.56-4.36a32.69,32.69,0,0,0-7.64,3.1c-10.77,6.22-10.77,16.3,0,22.52.62.36,1.27.69,1.94,1L419.54,121C426.41,117,426.38,110.42,419.47,106.43Z"/><path class="cls-3" d="M435.6,121.3l-.14.16c-.14.13-.27.27-.42.4s-.51.43-.77.65-.47.38-.73.57-.6.41-.91.61l-.24.15a104.4,104.4,0,0,1,1.78,19,103.15,103.15,0,0,1-2.11,20.82l.46-.3c.31-.21.62-.4.91-.61s.48-.38.72-.58.54-.42.78-.64l.15-.12a3.58,3.58,0,0,0,.26-.29,12.12,12.12,0,0,0,1.1-1.18h0a106.17,106.17,0,0,0-.85-38.6Z"/><path class="cls-3" d="M425.07,128.14l-3.41,2a92.1,92.1,0,0,1,.91,12.68A88,88,0,0,1,417.71,172l4.74-2.75a92.76,92.76,0,0,0,3.76-26.43A96.92,96.92,0,0,0,425.07,128.14Z"/><path class="cls-3" d="M414.14,134.49l-2.48,1.44c-.3.18-.64.33-1,.49q.26,3.2.26,6.38a73.71,73.71,0,0,1-9.23,36.31l.13,0c.47-.1.95-.19,1.42-.3l1-.28,1.32-.37.28-.09.46-.17.22-.08a77.94,77.94,0,0,0,8-35A83.16,83.16,0,0,0,414.14,134.49Z"/><path class="cls-4" d="M402,139.45c-.89.18-1.81.31-2.73.44,0,1,.12,2,.12,2.91a60.5,60.5,0,0,1-11.87,36.74c.73.1,1.47.18,2.21.24.27,0,.54,0,.81.05l.63,0,.64,0a62.14,62.14,0,0,0,9.3-20.94l.06-19.34Z"/><path class="cls-4" d="M402.86,139.26l-.89.19.89-.19Z"/><path class="cls-2" d="M402.86,139.26l-.89.19.89-.19Z"/><path class="cls-3" d="M402.86,139.26l-.89.19-.83.16L401.08,159A68.49,68.49,0,0,0,403,142.8C403,141.63,402.92,140.44,402.86,139.26Z"/><path class="cls-4" d="M391.29,140.23h0c-1.06,0-2.1-.14-3.14-.26l-.32,0-.19,0c.05,1,.12,1.94.12,2.9,0,13.07-4.63,24.55-12.33,32.91a29.39,29.39,0,0,0,3,1.46c.13.05.23.12.36.17l0,0c7.84-8.94,12.53-20.94,12.53-34.56C391.39,142,391.33,141.09,391.29,140.23Z"/><path class="cls-4" d="M379.79,142.8c0-1.62-.1-3.26-.26-4.9-.32-.12-.63-.22-.94-.35a29.71,29.71,0,0,1-2.95-1.41,48.74,48.74,0,0,1,.5,6.66c0,11.15-4.17,20.61-11.07,27l3.33,1.92C375.52,164.7,379.79,154.61,379.79,142.8Z"/><path class="cls-4" d="M368.18,142.8a45.32,45.32,0,0,0-1.74-11.94l-4.64-2.67a44,44,0,0,1,2.74,14.61c0,9.28-4,16.69-10.36,20.68l3.57,2.06C364.24,160.75,368.18,152.7,368.18,142.8Z"/><path class="cls-4" d="M354.29,123.85l-4.64-2.68a44.24,44.24,0,0,1,2.73,14.62c0,6.83-2.15,12.63-5.84,16.81v.24a9.18,9.18,0,0,0,1,4.06c5.33-4.88,8.51-12.25,8.51-21.11A45.26,45.26,0,0,0,354.29,123.85Z"/><path class="cls-4" d="M396.45,96.93a1.26,1.26,0,0,1,0,2.38,4.58,4.58,0,0,1-4.11,0,1.26,1.26,0,0,1,0-2.38A4.58,4.58,0,0,1,396.45,96.93Z"/><path class="cls-3" d="M404.08,101.51a1.25,1.25,0,0,1,0,2.37,4.58,4.58,0,0,1-4.11,0,1.25,1.25,0,0,1,0-2.37A4.51,4.51,0,0,1,404.08,101.51Z"/><path class="cls-4" d="M396,102.3a1.25,1.25,0,0,1,0,2.37,4.51,4.51,0,0,1-4.11,0,1.25,1.25,0,0,1,0-2.37A4.51,4.51,0,0,1,396,102.3Z"/><path class="cls-3" d="M398.87,127.51a1.25,1.25,0,0,1,0,2.37,4.51,4.51,0,0,1-4.11,0,1.25,1.25,0,0,1,0-2.37A4.58,4.58,0,0,1,398.87,127.51Z"/><path class="cls-4" d="M395.34,121.79a1.26,1.26,0,0,1,0,2.38,4.58,4.58,0,0,1-4.11,0,1.26,1.26,0,0,1,0-2.38A4.58,4.58,0,0,1,395.34,121.79Z"/><path class="cls-4" d="M389.55,125.83a1.26,1.26,0,0,1,0,2.38,4.58,4.58,0,0,1-4.11,0,1.26,1.26,0,0,1,0-2.38A4.58,4.58,0,0,1,389.55,125.83Z"/><path class="cls-2" d="M347.68,119.44a18.6,18.6,0,0,0,6.07,5.3l20.95,12.09a28.56,28.56,0,0,0,3.85,1.85c1,.41,2.12.77,3.23,1.09.9.26,1.82.48,2.76.68s1.74.33,2.62.45,1.71.22,2.57.29,1.73.12,2.6.14h1.13l1.57,0c1,0,2-.1,2.93-.2,1.13-.11,2.26-.27,3.36-.47l.82-.16h0l.19,0,1.3-.28.76-.2.37-.11c.43-.11.86-.23,1.28-.36l.51-.18.26-.09c.71-.24,1.41-.5,2.23-.85l.62-.26a26.5,26.5,0,0,0,2.52-1.28l20-11.61c.27-.16.51-.32.76-.49l.26-.17.19-.12c.26-.17.53-.34.77-.52s.4-.31.59-.46l.33-.27c.23-.18.46-.37.67-.56l.44-.43a15.19,15.19,0,0,0,1.17-1.26q.24-.28.45-.57c.09-.11.17-.23.26-.35l-.1,33.43h1l-1.06.38-.05.39c0,.2,0,.41-.07.61l-.06.27v0l-.1.36c0,.2-.1.4-.17.6l-.11.26v.05l-.12.25c-.11.25-.21.49-.34.73l-.16.3-.14.2,0,0c-.17.27-.35.55-.55.82l-.19.26,0,0-.15.16,0,0a13,13,0,0,1-1,1.1l-.15.16,0,0-.21.18c-.18.17-.37.32-.73.61l-.18.15-.5.39-.67.45-.2.13-.29.19-.35.24-.3.17-20,11.61a25,25,0,0,1-2.34,1.19l-.71.3c-.63.26-1.28.51-2,.74l-.45.17.32,1-.6-.9c-.39.12-.79.23-1.28.36l-.29.08-.7.19c-.4.1-.82.18-1.38.29l-.36.08-.45.1c-1,.19-2.12.34-3.2.44-.93.1-1.86.16-2.79.19l-1.5,0-1.08,0c-.83,0-1.66-.06-2.48-.13s-1.64-.16-2.45-.27-1.67-.27-2.49-.44-1.76-.39-2.61-.64c-1.05-.3-2.07-.64-3-1a25.66,25.66,0,0,1-3.57-1.72l-21-12.09c-4.58-2.65-7.1-6.1-7.09-9.73l.1-33.4Zm-1-6.23-.12,39.63c0,3.84,2.53,7.69,7.62,10.63l20.95,12.09a27,27,0,0,0,3.71,1.78c1,.4,2.06.75,3.13,1.06.88.25,1.78.47,2.69.66s1.69.32,2.56.44,1.66.21,2.5.28,1.69.12,2.54.14h1.11l1.53,0c1,0,1.91-.1,2.86-.19,1.11-.11,2.21-.27,3.29-.46.28,0,.55-.12.83-.18.47-.1.95-.19,1.42-.3l1-.28,1.32-.37.28-.09.46-.17c.69-.23,1.37-.49,2-.77l.73-.31a26.3,26.3,0,0,0,2.43-1.23l20-11.61.31-.18c.24-.15.45-.31.68-.45s.62-.4.91-.61.48-.38.72-.58.54-.42.78-.64l.15-.12a3.58,3.58,0,0,0,.26-.29,12.12,12.12,0,0,0,1.1-1.18c.07-.08.17-.16.24-.25s.11-.18.18-.27q.33-.45.6-.9c.08-.12.18-.24.26-.37a1.89,1.89,0,0,1,.09-.21c.14-.26.26-.53.38-.8s.16-.31.22-.46,0-.12,0-.17a7.67,7.67,0,0,0,.23-.78c0-.17.11-.34.14-.52s0-.09,0-.14c.05-.27.07-.55.1-.83s.05-.34.06-.52v-.22l.11-39.63c0,.25,0,.5-.06.75s-.05.55-.1.82-.1.44-.16.66-.13.52-.22.78-.18.42-.27.63-.23.54-.38.81-.22.38-.34.57-.39.61-.61.9-.27.35-.42.53c-.33.4-.7.79-1.09,1.18-.14.13-.27.27-.42.4s-.51.43-.77.65-.47.38-.73.57-.6.41-.91.61-.64.43-1,.63l-20,11.61a26.3,26.3,0,0,1-2.43,1.23l-.73.32c-.66.27-1.34.53-2,.76l-.74.26-1.32.38-1,.27c-.47.11-.94.21-1.42.3l-.83.16v0c-1.08.2-2.18.35-3.29.46-.94.09-1.9.16-2.86.19q-.76,0-1.53,0l-1.11,0c-.85,0-1.69-.07-2.54-.13s-1.67-.17-2.5-.28-1.72-.27-2.56-.45-1.81-.41-2.69-.66a32,32,0,0,1-3.13-1.06,27.59,27.59,0,0,1-3.71-1.78l-21-12.09c-5.09-2.94-7.62-6.79-7.61-10.63Z"/><path class="cls-2" d="M351,140.1l.14.05-.11-.06Z"/><path class="cls-2" d="M367.64,155.8a7.52,7.52,0,0,1-.09.83c0,.22-.11.44-.17.66a7.59,7.59,0,0,1-.22.78c-.08.21-.17.42-.27.62a7.43,7.43,0,0,1-.37.81c-.11.2-.23.39-.35.58s-.38.6-.61.9-.27.35-.41.52a15.09,15.09,0,0,1-1.1,1.18c-.14.14-.27.28-.42.41s-.51.43-.77.64-.47.39-.73.58-.6.41-.91.61-.63.43-1,.63l-20,11.61c-.78.45-1.59.85-2.43,1.23l-.74.31c-.66.28-1.33.54-2,.77l-.75.26-1.32.37-1,.28c-.46.11-.94.2-1.41.3l-.84.16-.11,39.64h0c.28-.06.55-.13.83-.18.48-.1.95-.19,1.42-.31l1-.27c.44-.12.89-.24,1.32-.38l.29-.08.46-.17c.69-.24,1.36-.49,2-.77l.73-.31a26.3,26.3,0,0,0,2.43-1.23l20-11.61.31-.19c.24-.14.44-.3.67-.45l.91-.6c.26-.19.49-.39.72-.58s.54-.42.78-.64l.15-.12c.1-.1.17-.2.27-.29a13.24,13.24,0,0,0,1.09-1.18,2.83,2.83,0,0,0,.24-.25c.07-.09.12-.18.18-.27.22-.3.42-.6.61-.9.07-.13.18-.25.25-.37a1.89,1.89,0,0,0,.09-.21,7.37,7.37,0,0,0,.38-.81c.07-.15.16-.3.22-.46s0-.11.05-.17c.09-.25.15-.52.22-.78s.11-.34.15-.51a.66.66,0,0,0,0-.14c.05-.28.07-.55.1-.83s.05-.35.06-.52v-.23l.11-39.63C367.7,155.3,367.66,155.55,367.64,155.8Z"/><path class="cls-3" d="M326.45,181.32c-.95.09-1.91.15-2.86.19s-1.76,0-2.64,0-1.7-.07-2.54-.14-1.68-.16-2.51-.28-1.71-.27-2.55-.44-1.82-.41-2.69-.66c-1.08-.31-2.12-.66-3.13-1.06a27.15,27.15,0,0,1-3.72-1.78l-20.95-12.1c-5.08-2.93-7.62-6.78-7.61-10.62l-.11,39.62c0,3.85,2.52,7.7,7.61,10.63l20.95,12.1a28.86,28.86,0,0,0,3.71,1.78c1,.4,2.06.75,3.13,1.06.88.25,1.78.47,2.69.66s1.7.32,2.56.44,1.66.21,2.51.28,1.69.11,2.53.14,1.77,0,2.64,0,1.92-.09,2.86-.19c1.11-.11,2.21-.26,3.29-.45l.11-39.63C328.65,181.05,327.55,181.2,326.45,181.32Z"/><path class="cls-3" d="M322.06,181c-6.8,0-13.19-1.52-18-4.3l-20.95-12.09c-4.74-2.74-7.35-6.34-7.35-10.15s2.56-7.35,7.23-10.07l20-11.61c4.75-2.77,11.13-4.29,17.95-4.29s13.2,1.52,18,4.28l21,12.1c4.7,2.72,7.3,6.32,7.31,10.14s-2.56,7.38-7.21,10.08l-20,11.61C335.22,179.49,328.85,181,322.06,181Z"/><path class="cls-2" d="M321,129h0c6.72,0,13,1.5,17.72,4.21l20.95,12.1c4.54,2.62,7,6.06,7.05,9.69s-2.47,7-6.95,9.63l-20,11.61c-4.69,2.73-11,4.23-17.67,4.23s-13-1.5-17.73-4.23l-20.95-12.09c-4.57-2.64-7.09-6.08-7.09-9.7s2.47-7,7-9.62l20-11.61c4.68-2.72,11-4.22,17.7-4.22Zm0-1c-6.61,0-13.22,1.46-18.22,4.36l-20,11.61c-10,5.84-10,15.28.12,21.11l20.95,12.1c5.05,2.91,11.65,4.37,18.25,4.37s13.18-1.45,18.2-4.37l20-11.61c10-5.81,9.95-15.31-.11-21.12l-20.95-12.1c-5-2.9-11.63-4.35-18.24-4.35Z"/><path class="cls-4" d="M322,178.15a32.72,32.72,0,0,1-16.13-3.85l-19.12-11c-4.14-2.39-6.42-5.5-6.43-8.76s2.24-6.33,6.32-8.7l18.23-10.6a35.8,35.8,0,0,1,32.24,0l19.11,11c4.12,2.38,6.39,5.49,6.39,8.77s-2.23,6.34-6.29,8.71L338.09,174.3A32.44,32.44,0,0,1,322,178.15Z"/><path class="cls-2" d="M321,132.4h0a31.8,31.8,0,0,1,15.61,3.69l19.11,11c3.79,2.18,5.87,5,5.87,7.87s-2,5.64-5.78,7.81l-18.23,10.6a34.65,34.65,0,0,1-31.18,0l-19.11-11c-3.81-2.2-5.91-5-5.91-7.87s2.06-5.63,5.8-7.81l18.24-10.59A31.46,31.46,0,0,1,321,132.4Zm0-2.07c-6,0-12.06,1.32-16.63,4l-18.23,10.6c-9.16,5.32-9.11,13.94.11,19.26l19.12,11a34,34,0,0,0,16.65,4c6,0,12-1.33,16.6-4l18.24-10.6c9.11-5.29,9.08-14-.1-19.27l-19.12-11c-4.58-2.65-10.61-4-16.64-4Z"/><path class="cls-2" d="M348.06,147.66l-7.55-4.37-6.86-3.95c-6.41-3.7-16.58-4-23.5-.8,0,0,0,0,0,.06-.53.24-1.08.46-1.57.74l-13.74,8c-6.9,4-6.86,10.5.08,14.52l8.95,5.16,5.46,3.15c6.94,4,18.16,4,25.06,0l.41-.24h0l13.33-7.74C355,158.18,355,151.65,348.06,147.66Z"/><path class="cls-2" d="M321.87,175.26a27.69,27.69,0,0,1-13.58-3.3l-14.4-8.32c-4-2.33-6.27-5.55-6.28-9.07s2.2-6.71,6.19-9l13.74-8a12.31,12.31,0,0,1,1.15-.57l.47-.27c7.72-3.53,18.64-3.15,25.53.83l14.41,8.32c4,2.32,6.23,5.54,6.24,9.07s-2.19,6.73-6.17,9l-13.73,8A27.47,27.47,0,0,1,321.87,175.26Zm-10.12-35.15,0,0-1.17.53a8.89,8.89,0,0,0-.93.45l-13.74,8c-2.66,1.55-4.12,3.48-4.12,5.44s1.5,3.93,4.2,5.49l14.41,8.32c6.25,3.61,16.77,3.6,23,0l13.74-8c2.64-1.54,4.1-3.48,4.1-5.45s-1.48-3.94-4.17-5.49l-14.4-8.32C327.1,138,318.1,137.54,311.75,140.11Z"/><path class="cls-2" d="M337.05,149.69C344,153.69,354,158,347.13,162l-12.33,7.9-.41.24c-6.9,4-18.12,4-25.06,0L303.87,167l.91-5.52c-6.95-4-15.23-10-8.33-14l16.78-5.72c.5-.29-3.62-3-3.08-3.24,6.92-3.17,17.09-2.9,23.5.8l6.86,3.95Z"/><path class="cls-3" d="M313.09,140a30.51,30.51,0,0,0-2.92-1.45c-.53.25-1.09.47-1.59.75l-13.74,8c-6.9,4-6.86,10.5.08,14.52l8.95,5.16a35.08,35.08,0,0,0,9.22-3.56C324.28,157,324.28,146.5,313.09,140Z"/><path class="cls-4" d="M348.06,147.66l-7.55-4.37a33.21,33.21,0,0,0-7.65,3.1c-10.77,6.22-10.77,16.31,0,22.52.63.36,1.28.7,1.94,1l13.33-7.74C355,158.18,355,151.65,348.06,147.66Z"/><path class="cls-3" d="M364.19,162.53l-.14.15c-.14.14-.27.28-.42.41s-.51.43-.77.64-.47.39-.73.58-.6.41-.91.61l-.23.15a105.14,105.14,0,0,1,1.78,19,103.15,103.15,0,0,1-2.12,20.82l.46-.31.91-.6c.26-.19.49-.39.72-.58s.54-.42.78-.64l.15-.12c.1-.1.17-.2.27-.29a13.24,13.24,0,0,0,1.09-1.18h0A107.23,107.23,0,0,0,366.41,184,108.54,108.54,0,0,0,364.19,162.53Z"/><path class="cls-3" d="M353.66,169.37l-3.4,2a93.67,93.67,0,0,1,.9,12.68,88.29,88.29,0,0,1-4.85,29.18l4.73-2.75A92.81,92.81,0,0,0,354.81,184,96.94,96.94,0,0,0,353.66,169.37Z"/><path class="cls-3" d="M342.74,175.72l-2.48,1.44c-.31.18-.65.32-1,.49q.26,3.19.25,6.38a73.61,73.61,0,0,1-9.23,36.31l.13,0c.48-.1.95-.19,1.42-.31l1-.27c.44-.12.89-.24,1.32-.38l.29-.08.46-.17.21-.08a77.94,77.94,0,0,0,8-35C343.2,181.27,343,178.5,342.74,175.72Z"/><path class="cls-4" d="M330.57,180.68c-.9.18-1.82.31-2.74.43,0,1,.12,1.95.12,2.92a60.51,60.51,0,0,1-11.86,36.73c.73.1,1.46.19,2.21.25l.8,0,.63,0,.64,0a62.35,62.35,0,0,0,9.31-20.94l.05-19.34Z"/><path class="cls-4" d="M331.45,180.49l-.88.19.88-.19Z"/><path class="cls-2" d="M331.45,180.49l-.88.19.88-.19Z"/><path class="cls-3" d="M331.45,180.49l-.88.19-.84.16-.05,19.34A69,69,0,0,0,331.59,184C331.59,182.85,331.51,181.67,331.45,180.49Z"/><path class="cls-4" d="M319.88,181.46h0c-1.05-.05-2.1-.14-3.14-.27l-.32,0-.19,0c0,1,.12,1.94.12,2.9,0,13.07-4.63,24.54-12.32,32.91a28.27,28.27,0,0,0,3,1.46c.13,0,.24.12.36.17h0C315.29,209.65,320,197.65,320,184,320,183.18,319.92,182.32,319.88,181.46Z"/><path class="cls-4" d="M308.38,184c0-1.62-.1-3.26-.26-4.91l-.94-.34a28.49,28.49,0,0,1-2.94-1.42,50.41,50.41,0,0,1,.5,6.67c0,11.14-4.18,20.61-11.08,27l3.33,1.93C304.11,205.93,308.38,195.84,308.38,184Z"/><path class="cls-4" d="M296.78,184A45.28,45.28,0,0,0,295,172.09l-4.63-2.68A44.29,44.29,0,0,1,293.13,184c0,9.28-4,16.69-10.36,20.68l3.57,2.06C292.83,202,296.78,193.92,296.78,184Z"/><path class="cls-4" d="M282.88,165.07l-4.64-2.67A44,44,0,0,1,281,177c0,6.83-2.16,12.64-5.84,16.82v.23a9.21,9.21,0,0,0,1,4.07c5.33-4.89,8.51-12.25,8.51-21.12A45.32,45.32,0,0,0,282.88,165.07Z"/><path class="cls-4" d="M325,138.16a1.25,1.25,0,0,1,0,2.37,4.51,4.51,0,0,1-4.11,0,1.25,1.25,0,0,1,0-2.37A4.58,4.58,0,0,1,325,138.16Z"/><path class="cls-3" d="M332.67,142.73a1.26,1.26,0,0,1,0,2.38,4.58,4.58,0,0,1-4.11,0,1.26,1.26,0,0,1,0-2.38A4.58,4.58,0,0,1,332.67,142.73Z"/><ellipse class="cls-4" cx="322.5" cy="144.71" rx="2.91" ry="1.68"/><ellipse class="cls-3" cx="325.41" cy="169.92" rx="2.91" ry="1.68"/><ellipse class="cls-4" cx="321.88" cy="164.21" rx="2.91" ry="1.68"/><path class="cls-4" d="M318.14,167.06a1.25,1.25,0,0,1,0,2.37,4.51,4.51,0,0,1-4.11,0,1.25,1.25,0,0,1,0-2.37A4.51,4.51,0,0,1,318.14,167.06Z"/><path class="cls-2" d="M276.27,160.66a18.7,18.7,0,0,0,6.07,5.3l21,12.1a30,30,0,0,0,3.86,1.85c1,.4,2.11.77,3.22,1.09.9.25,1.83.48,2.76.67s1.74.33,2.63.46,1.7.22,2.56.29,1.73.11,2.6.14h1.14q.78,0,1.56,0c1,0,2-.1,2.93-.19,1.13-.12,2.26-.27,3.37-.47l.81-.17h0l.2,0c.43-.08.87-.17,1.3-.28l.76-.2.37-.1c.43-.12.86-.23,1.27-.37l.51-.17.26-.09c.71-.24,1.41-.5,2.22-.84l.63-.27c1-.46,1.8-.86,2.53-1.28l20-11.61c.27-.16.52-.33.76-.49l.27-.17.18-.12.77-.52c.21-.15.4-.31.59-.47l.33-.26c.23-.18.46-.37.67-.56s.2-.19.44-.43a15.45,15.45,0,0,0,1.18-1.27l.45-.56.25-.35-.1,33.43h1l-1.06.39,0,.38c0,.21,0,.41-.08.62l-.06.26v.06l-.1.36c-.05.2-.1.4-.17.6l-.11.26v0l-.12.25a8,8,0,0,1-.34.73l-.16.3-.14.19,0,0c-.17.28-.35.56-.55.83l-.19.26,0,0-.14.15,0,0c-.31.37-.66.74-1,1.1l-.16.16,0,0-.2.19c-.18.16-.38.32-.74.6l-.18.15c-.16.14-.32.27-.5.4s-.44.3-.67.44l-.2.13-.28.2c-.12.08-.23.16-.36.23l-.3.18-20,11.61a23,23,0,0,1-2.34,1.18l-.7.3c-.64.27-1.29.52-2,.75l-.44.16.32,1-.6-.91c-.39.13-.79.24-1.28.37l-.3.08-.69.19-1.38.29-.37.08-.44.09q-1.59.28-3.21.45c-.92.09-1.86.16-2.79.19l-1.49,0h-1.09c-.83,0-1.66-.07-2.48-.13s-1.64-.16-2.45-.28-1.67-.26-2.49-.43-1.76-.4-2.61-.64c-1.05-.3-2.07-.64-3-1a27,27,0,0,1-3.58-1.72l-21-12.1c-4.59-2.64-7.11-6.1-7.1-9.72l.1-33.41Zm-1-6.22-.11,39.62c0,3.85,2.52,7.7,7.61,10.63l20.95,12.1a28.86,28.86,0,0,0,3.71,1.78c1,.4,2.06.75,3.13,1.06.88.25,1.78.47,2.69.66s1.7.32,2.56.44,1.66.21,2.51.28,1.69.11,2.53.14H322c.51,0,1,0,1.52,0,1,0,1.92-.09,2.86-.19,1.11-.11,2.21-.26,3.29-.45.28-.05.55-.13.83-.18.48-.1.95-.19,1.42-.31l1-.27c.44-.12.89-.24,1.32-.38l.29-.08.46-.17c.69-.24,1.36-.49,2-.77l.73-.31a26.3,26.3,0,0,0,2.43-1.23l20-11.61.31-.19c.24-.14.44-.3.67-.45l.91-.6c.26-.19.49-.39.73-.58s.53-.42.77-.64l.15-.12c.1-.1.17-.2.27-.29a13.24,13.24,0,0,0,1.09-1.18,2.83,2.83,0,0,0,.24-.25c.07-.09.12-.18.18-.27.22-.3.42-.6.61-.9.07-.13.18-.25.25-.37a1.89,1.89,0,0,0,.09-.21,7.37,7.37,0,0,0,.38-.81c.07-.15.16-.3.22-.46s0-.11.05-.17c.09-.25.15-.52.22-.78s.11-.34.15-.51a.66.66,0,0,0,0-.14c.05-.28.07-.55.1-.83s.05-.35.06-.52v-.23l.11-39.63c0,.25,0,.5-.06.75a7.52,7.52,0,0,1-.09.83c0,.22-.11.44-.17.66a7.59,7.59,0,0,1-.22.78c-.08.21-.17.42-.27.62a7.43,7.43,0,0,1-.37.81c-.11.2-.23.39-.35.58s-.38.6-.61.9-.27.35-.41.52a15.09,15.09,0,0,1-1.1,1.18c-.14.14-.27.28-.42.41s-.51.43-.77.64-.47.39-.73.58-.6.41-.91.61-.63.43-1,.63l-20,11.61c-.78.45-1.59.85-2.43,1.23l-.74.31c-.66.28-1.33.54-2,.77l-.75.26-1.32.37-1,.28c-.46.11-.94.2-1.41.3l-.84.16v0c-1.08.19-2.18.34-3.28.46-.95.09-1.91.15-2.86.19l-1.53,0H321c-.85,0-1.7-.07-2.54-.14s-1.68-.16-2.51-.28-1.71-.27-2.55-.44-1.82-.41-2.69-.66c-1.08-.31-2.12-.66-3.13-1.06a27.15,27.15,0,0,1-3.72-1.78l-20.95-12.1c-5.08-2.93-7.62-6.78-7.61-10.62Z"/></svg>