<svg id="Layer_1" data-name="Layer 1" xmlns="http://www.w3.org/2000/svg" viewBox="0 0 361 361"><defs><style>.cls-1{fill:#a2d8e5;stroke:#17181b;stroke-miterlimit:10;stroke-width:18px;}.cls-2{fill:#fff;}.cls-3{fill:#17181b;}.cls-4{fill:#ff5a6e;}</style></defs><rect class="cls-1" x="9" y="9" width="343" height="343" rx="22.65"/><polygon class="cls-2" points="67.66 173.23 179.56 108.63 291.46 173.23 179.56 237.84 67.66 173.23"/><path class="cls-3" d="M179.56,109.55l110.31,63.68L179.56,236.92,69.25,173.23l110.31-63.68Zm0-1.84L66.07,173.23l113.49,65.53,113.5-65.53-113.5-65.52Z"/><polygon class="cls-2" points="293.19 172.45 183.72 109.19 207.81 113.11 317.27 176.37 293.19 172.45"/><path class="cls-3" d="M187.89,110.68l19.5,3.17,105.71,61-19.5-3.17-105.71-61Zm-8.33-3,113.5,65.52,28.37,4.62L207.94,112.32l-28.38-4.61Z"/><polygon class="cls-4" points="73.13 173.23 179.56 111.79 285.99 173.23 179.56 234.68 73.13 173.23"/><polygon class="cls-3" points="73.13 173.23 103.74 190.9 179.56 147.13 179.56 111.79 73.13 173.23"/><polygon class="cls-4" points="180.36 146.67 180.36 113.16 284.4 173.23 255.38 189.98 180.36 146.67"/><path class="cls-3" d="M181.15,114.55,282.8,173.23l-27.42,15.83-74.23-42.85V114.55Zm-1.59-2.76v35.34l75.82,43.77L286,173.23,179.56,111.79Z"/><polygon class="cls-3" points="236.66 144.75 194.47 120.39 194.08 121.19 236.05 145.42 236.66 144.75"/><polygon class="cls-3" points="293.06 173.23 260.84 287.57 179.56 334.5 179.56 238.76 293.06 173.23"/><polygon class="cls-4" points="98.96 287.05 67.36 174.9 178.76 239.22 178.76 333.12 98.96 287.05"/><path class="cls-3" d="M68.66,176.57,178,239.68v92.06L99.64,286.52l-31-109.95Zm-2.59-3.34L98.28,287.57l81.28,46.93V238.76L66.07,173.23Z"/><path class="cls-3" d="M178.74,333.73a.4.4,0,0,1-.33-.17L66.3,174.26a.39.39,0,0,1,.1-.56.4.4,0,0,1,.55.1L179.06,333.1a.4.4,0,0,1-.09.56A.48.48,0,0,1,178.74,333.73Z"/><path class="cls-3" d="M98.89,287.62a.41.41,0,0,1-.35-.2.4.4,0,0,1,.15-.54l33.67-19.53a.41.41,0,0,1,.54.15.39.39,0,0,1-.14.54L99.08,287.57A.45.45,0,0,1,98.89,287.62Z"/><path class="cls-4" d="M95.81,185.41c1.61-2.95,8.5-14.87,16.9-18.13a71.67,71.67,0,0,1,10.36-2.95c6-1.36,11.59-2.65,15.89-7a75.39,75.39,0,0,0,6.21-7.08,73.26,73.26,0,0,1,8.8-9.52c7.3-6.71,15.82-10.72,22.8-10.72,11.11.17,20.71,4.34,26,11.16,4.92,6.4,10,13,19.56,13a24.38,24.38,0,0,0,4.68-.48,34.32,34.32,0,0,1,6.59-.65c7.55,0,20.81,2.64,24.66,20.32,1.52,7,5.39,9.53,7.8,10.44l-86.46,49.92Z"/><path class="cls-2" d="M176.77,130.83H177c10.6.16,20,4.22,25.08,10.85S212.34,155,222.29,155a25.17,25.17,0,0,0,4.83-.5,33.54,33.54,0,0,1,6.44-.63c7.31,0,20.15,2.56,23.88,19.69,1.33,6.08,4.38,9,6.86,10.34l-84.74,48.93L96.89,185.11C99,181.4,105.38,171,113,168a70.76,70.76,0,0,1,10.26-2.91c6.07-1.39,11.81-2.71,16.27-7.19a78,78,0,0,0,6.27-7.15,72.07,72.07,0,0,1,8.72-9.43c7.15-6.58,15.47-10.51,22.26-10.51Zm0-1.59c-6.64,0-15.33,3.56-23.34,10.93s-8.57,10.12-15,16.62-16,5.87-26,9.74-17.67,19.18-17.67,19.18l84.81,49,88.55-51.13s-7-.51-9.11-10.32c-3.46-15.87-14.83-20.94-25.44-20.94a35.25,35.25,0,0,0-6.74.66,23.41,23.41,0,0,1-4.53.47c-9,0-13.86-6.11-18.93-12.71-5.87-7.63-16.28-11.32-26.32-11.47Z"/><path class="cls-2" d="M110,195H110a.8.8,0,0,1-.72-.86c.44-5.32,1.53-12,6.05-16.2,5-4.72,12.63-4.91,17.89-4.65,1,.05,2.08.12,3.13.19,5,.33,10.14.67,14.79-1,6.26-2.21,10.77-7.64,15.14-12.88l1.07-1.29c4.79-5.73,10.73-11.68,18.46-12.43,7-.7,14.3,3.06,22.19,11.46.76.8,1.52,1.63,2.28,2.45,4.9,5.33,10,10.85,16.71,13a64.61,64.61,0,0,0,7.45,1.82,72.71,72.71,0,0,1,8,2c3.35,1,6.09,2.26,8.56,4.78a10.18,10.18,0,0,1,2.62,6.89,7.22,7.22,0,0,1-2.27,5.25.79.79,0,0,1-1.13,0,.8.8,0,0,1,0-1.13,5.6,5.6,0,0,0,1.77-4.12,8.59,8.59,0,0,0-2.17-5.74,17.39,17.39,0,0,0-7.9-4.38,71.47,71.47,0,0,0-7.87-1.92,67.49,67.49,0,0,1-7.62-1.86c-7.15-2.27-12.36-7.94-17.4-13.43-.76-.82-1.51-1.64-2.27-2.44-7.53-8-14.33-11.58-20.88-11-7.15.7-12.8,6.39-17.39,11.87l-1.07,1.28c-4.5,5.42-9.16,11-15.83,13.37-5,1.74-10.28,1.39-15.42,1.05-1-.07-2.08-.14-3.11-.19-5-.25-12.12-.08-16.72,4.23-4.12,3.86-5.13,10.13-5.56,15.16A.79.79,0,0,1,110,195Z"/><path class="cls-2" d="M105.05,191.93a.85.85,0,0,1-.35-.08.79.79,0,0,1-.37-1.06,46.85,46.85,0,0,1,30.53-25.07c2.65-.67,5.4-1.12,8-1.55,5.25-.85,10.21-1.65,14.67-4,5.41-2.89,9.49-7.92,12.89-12.4l1.25-1.67c3.26-4.34,6.63-8.83,11-12.2,5.71-4.38,12.42-5.94,17.92-4.16,4.73,1.53,8.87,5.5,12.31,11.82a101.45,101.45,0,0,1,6.49,16.41l.11.36c1.51,5.07,3.22,10.83,11.74,11.6,1.17.11,2.52.14,3.95.16,8.34.15,20.93.38,23,19.14a.8.8,0,0,1-.7.88.77.77,0,0,1-.88-.71c-1.9-17.37-12.73-17.56-21.43-17.72-1.46,0-2.83,0-4.07-.16-9.59-.88-11.55-7.45-13.12-12.74l-.11-.36a98.78,98.78,0,0,0-6.36-16.09c-3.24-5.95-7.07-9.68-11.39-11.07-5-1.62-11.17-.16-16.47,3.9-4.22,3.24-7.52,7.64-10.71,11.9l-1.26,1.67c-3.5,4.62-7.71,9.8-13.41,12.85-4.7,2.51-10,3.37-15.16,4.2-2.62.43-5.34.87-7.91,1.52a45.31,45.31,0,0,0-29.5,24.22A.79.79,0,0,1,105.05,191.93Z"/><path class="cls-2" d="M210.91,27.31c2.27,1.31,2.27,3.43,0,4.74a9.07,9.07,0,0,1-8.21,0c-2.27-1.31-2.27-3.43,0-4.74A9.07,9.07,0,0,1,210.91,27.31Z"/><path class="cls-3" d="M206.8,33.84a9.14,9.14,0,0,1-4.5-1.1,3.64,3.64,0,0,1-2.1-3.06,3.64,3.64,0,0,1,2.1-3.06,9.81,9.81,0,0,1,9,0,3.64,3.64,0,0,1,2.1,3.06,3.64,3.64,0,0,1-2.1,3.06A9.16,9.16,0,0,1,206.8,33.84Zm0-6.71a7.58,7.58,0,0,0-3.7.87,2.19,2.19,0,0,0-1.31,1.68,2.17,2.17,0,0,0,1.31,1.68,8.29,8.29,0,0,0,7.41,0,2.17,2.17,0,0,0,1.31-1.68A2.19,2.19,0,0,0,210.51,28,7.59,7.59,0,0,0,206.8,27.13Z"/><path class="cls-4" d="M206,212.84a2,2,0,0,1-.54-.21c-.22-.13-.31-.26-.31-.31L201.84,32.45c.15.1.3.2.46.29A8.76,8.76,0,0,0,206,33.8Z"/><path class="cls-3" d="M202.66,33.82a10.18,10.18,0,0,0,2.55.7V172.25L202.66,33.82ZM201,29.71h0l3.36,182.63h0a1.23,1.23,0,0,0,.71,1,3.52,3.52,0,0,0,1.73.42V33a8.32,8.32,0,0,1-4.1-1,2.86,2.86,0,0,1-1.7-2.34Z"/><path class="cls-3" d="M212.61,29.71a2.88,2.88,0,0,1-1.7,2.34,8.33,8.33,0,0,1-4.11,1v180.7a3.53,3.53,0,0,0,1.74-.42,1.23,1.23,0,0,0,.71-1h0l3.36-182.63Z"/><path class="cls-2" d="M210.91,59.47a9.07,9.07,0,0,1-8.21,0,3.88,3.88,0,0,1-1.17-1L201.9,79a4.25,4.25,0,0,0,.8.59,9.07,9.07,0,0,0,8.21,0,4.61,4.61,0,0,0,.8-.59l.37-20.51A4,4,0,0,1,210.91,59.47Z"/><path class="cls-3" d="M206.81,81.39a9.16,9.16,0,0,1-4.51-1.1,4.67,4.67,0,0,1-.93-.69.77.77,0,0,1-.26-.57l-.38-20.52a.81.81,0,0,1,.53-.77.8.8,0,0,1,.89.26,3.28,3.28,0,0,0,.95.78,8.32,8.32,0,0,0,7.41,0h0a3.28,3.28,0,0,0,1-.78.78.78,0,0,1,.89-.25.79.79,0,0,1,.53.76L212.5,79a.75.75,0,0,1-.26.57,5,5,0,0,1-.93.69A9.14,9.14,0,0,1,206.81,81.39Zm-4.12-2.75a3.62,3.62,0,0,0,.41.27,8.32,8.32,0,0,0,7.41,0,3.62,3.62,0,0,0,.41-.27l.34-18.45a9.85,9.85,0,0,1-8.91,0Z"/><path class="cls-2" d="M270.33,42.43c1.55,2.11.7,4.06-1.9,4.35a9.1,9.1,0,0,1-7.53-3.29c-1.55-2.11-.7-4.06,1.9-4.35A9.07,9.07,0,0,1,270.33,42.43Z"/><path class="cls-3" d="M267.74,47.61A10,10,0,0,1,260.26,44a3.28,3.28,0,0,1,2.45-5.61A9.84,9.84,0,0,1,271,42a3.28,3.28,0,0,1-2.45,5.61A6.68,6.68,0,0,1,267.74,47.61Zm-4.27-7.71a5.49,5.49,0,0,0-.58,0A2.2,2.2,0,0,0,261,41a2.21,2.21,0,0,0,.52,2.06,8.33,8.33,0,0,0,6.8,3,2.2,2.2,0,0,0,1.87-1,2.19,2.19,0,0,0-.52-2.06h0A8.49,8.49,0,0,0,263.47,39.9Z"/><path class="cls-4" d="M191.47,210.44a1.77,1.77,0,0,1-.41-.41c-.15-.21-.18-.36-.16-.41L260,43.51q.14.23.3.45a8.8,8.8,0,0,0,3,2.46Z"/><path class="cls-3" d="M260.17,45.09a9.42,9.42,0,0,0,2.05,1.66L207,172.94,260.17,45.09Zm.11-4.44L190.16,209.32h0a1.22,1.22,0,0,0,.26,1.19,3.61,3.61,0,0,0,1.42,1.07L264.27,46a8.41,8.41,0,0,1-3.37-2.54,2.89,2.89,0,0,1-.61-2.83Z"/><path class="cls-3" d="M270.92,45.31a2.9,2.9,0,0,1-2.49,1.47,8.43,8.43,0,0,1-4.16-.75L191.84,211.58a3.43,3.43,0,0,0,1.75.31,1.23,1.23,0,0,0,1-.61h0l76.29-166Z"/><path class="cls-2" d="M257.44,71.9a9.11,9.11,0,0,1-7.53-3.29,4.26,4.26,0,0,1-.68-1.37l-7.88,19a5.06,5.06,0,0,0,.49.86,9.1,9.1,0,0,0,7.53,3.29,4.37,4.37,0,0,0,1-.22l8.57-18.65A4,4,0,0,1,257.44,71.9Z"/><path class="cls-3" d="M248.69,91.17a10,10,0,0,1-7.49-3.65,6.19,6.19,0,0,1-.58-1,.81.81,0,0,1,0-.63l7.87-18.95a.78.78,0,0,1,.8-.49.81.81,0,0,1,.71.6,3.5,3.5,0,0,0,.55,1.09,8.37,8.37,0,0,0,6.8,3h0a3.28,3.28,0,0,0,1.18-.34.8.8,0,0,1,1.1,1l-8.57,18.64a.78.78,0,0,1-.47.42,5.13,5.13,0,0,1-1.13.26A6.51,6.51,0,0,1,248.69,91.17Zm-6.46-5a2.19,2.19,0,0,0,.26.41,8.38,8.38,0,0,0,6.79,3,4,4,0,0,0,.48-.09l7.71-16.76a9.87,9.87,0,0,1-8.16-3.57Z"/><path class="cls-4" d="M201,154.6l-15.69,59.14,24.4.72,10.72-14.86-.9-33.55s-5.8-4.74-11.05-2.74S201,154.6,201,154.6Z"/><path class="cls-2" d="M137.09,209.83a.79.79,0,0,1-.78-.64,23.62,23.62,0,0,1,23.74-28.3,47.68,47.68,0,0,1,4.82.44c3.17.4,6.17.78,9-.09,3.55-1.07,6.21-3.82,9-6.74,3.07-3.17,6.25-6.44,10.66-7.3,4-.76,8.4.58,13.14,4,1.25.92,2.46,1.9,3.67,2.88a41.45,41.45,0,0,0,7.09,5,40.82,40.82,0,0,0,9.69,3.1c2.12.49,4.32,1,6.42,1.7,5.35,1.8,11.25,5.92,11.79,12.1a.79.79,0,0,1-.72.86.76.76,0,0,1-.86-.72c-.48-5.41-5.85-9.09-10.71-10.72-2-.69-4.2-1.19-6.28-1.67a42.62,42.62,0,0,1-10.06-3.23,42.77,42.77,0,0,1-7.37-5.18c-1.18-1-2.36-1.93-3.6-2.83-4.36-3.16-8.36-4.4-11.89-3.73-3.93.76-6.79,3.72-9.83,6.85-2.84,2.94-5.78,6-9.72,7.15-3.19,1-6.5.55-9.7.15a45.66,45.66,0,0,0-4.65-.43,22,22,0,0,0-22.15,26.39.79.79,0,0,1-.62.94Z"/><path class="cls-2" d="M155,220.7a.83.83,0,0,1-.51-.19.8.8,0,0,1-.1-1.12,39.28,39.28,0,0,1,12.23-10.24,22.34,22.34,0,0,1,15.82-2,36.24,36.24,0,0,1,8.49,4,39.94,39.94,0,0,0,7,3.48,20,20,0,0,0,15.89-1.31.8.8,0,1,1,.76,1.4,21.63,21.63,0,0,1-17.18,1.41,42.29,42.29,0,0,1-7.22-3.6,34.21,34.21,0,0,0-8.11-3.83,20.77,20.77,0,0,0-14.69,1.9,37.63,37.63,0,0,0-11.71,9.84A.81.81,0,0,1,155,220.7Z"/><path class="cls-2" d="M148.48,216.77a.8.8,0,0,1-.76-.55,21.09,21.09,0,0,1,30.89-24.65,45.24,45.24,0,0,1,4,2.82c2.35,1.8,4.57,3.51,7.25,4.2,3,.77,6,.16,9.25-.46a46.12,46.12,0,0,1,4.89-.78,23.38,23.38,0,0,1,21.49,10.8.8.8,0,0,1-1.36.83,21.76,21.76,0,0,0-20-10,45.56,45.56,0,0,0-4.73.75c-3.26.64-6.63,1.3-9.95.44-3-.77-5.45-2.65-7.82-4.48a43.54,43.54,0,0,0-3.83-2.71,19.49,19.49,0,0,0-28.55,22.78.81.81,0,0,1-.51,1A.73.73,0,0,1,148.48,216.77Z"/><path class="cls-2" d="M179.05,234.34a.87.87,0,0,1-.41-.11.81.81,0,0,1-.27-1.1,72.07,72.07,0,0,0,10-31.16c.52-6.46-.49-10.75-3.18-13.53s-7-3.8-11.56-2.87c-4.25.87-8.06,3.2-11.61,5.52l-1.08.72a48.57,48.57,0,0,1-10.63,5.78c-8.68,3-18.09.76-25.31-1.5-1.75-.55-3.5-1.13-5.25-1.72-6.14-2.05-12.49-4.18-19-4.53a.8.8,0,1,1,.09-1.59c6.69.36,13.15,2.52,19.39,4.61,1.74.58,3.48,1.17,5.22,1.71,7,2.18,16.07,4.32,24.31,1.51a47.22,47.22,0,0,0,10.27-5.6l1.09-.72c3.67-2.4,7.64-4.82,12.16-5.75,5.05-1,10,.24,13,3.32,4,4.11,4,10.4,3.62,14.76A73.89,73.89,0,0,1,179.74,234,.81.81,0,0,1,179.05,234.34Z"/><path class="cls-2" d="M105.11,184.23H105a.78.78,0,0,1-.71-.87,19,19,0,0,1,11.19-15.25A36.38,36.38,0,0,1,125,166c1.73-.23,3.51-.46,5.21-.83A31.12,31.12,0,0,0,145,157.25a63.47,63.47,0,0,0,5.9-6.8,65.37,65.37,0,0,1,6.12-7,32.86,32.86,0,0,1,24.39-8.78.8.8,0,0,1,.75.84.78.78,0,0,1-.85.74,31.36,31.36,0,0,0-23.2,8.36,64.82,64.82,0,0,0-6,6.86,63.06,63.06,0,0,1-6.05,7,32.68,32.68,0,0,1-15.59,8.28c-1.76.39-3.58.63-5.34.86a34.36,34.36,0,0,0-9.07,2,17.35,17.35,0,0,0-10.23,13.93A.79.79,0,0,1,105.11,184.23Z"/><path class="cls-2" d="M132.77,193.36a.79.79,0,0,1-.69-.4,8.25,8.25,0,0,1,.79-8.81,14.16,14.16,0,0,1,7.33-4.88,47.85,47.85,0,0,1,5.9-1.36c.81-.15,1.62-.3,2.43-.47a53.79,53.79,0,0,0,20.9-9.38c1.17-.87,2.32-1.79,3.47-2.71,3.56-2.87,7.25-5.82,11.71-7.2a18.59,18.59,0,0,1,23.8,14.8.79.79,0,1,1-1.57.25,17,17,0,0,0-21.76-13.52c-4.17,1.28-7.74,4.14-11.18,6.91-1.17.93-2.33,1.87-3.52,2.75A55.44,55.44,0,0,1,148.86,179c-.82.17-1.65.33-2.47.48a46.14,46.14,0,0,0-5.7,1.31,12.5,12.5,0,0,0-6.52,4.29,6.73,6.73,0,0,0-.71,7.08.8.8,0,0,1-.29,1.09A.83.83,0,0,1,132.77,193.36Z"/><path class="cls-2" d="M233.4,202.34a.78.78,0,0,1-.77-.59c-.75-2.85-3.56-4.73-5.78-5.81-.89-.44-1.81-.82-2.73-1.2a27.24,27.24,0,0,1-5.6-2.88,26.85,26.85,0,0,1-4.44-4.41,37.48,37.48,0,0,0-2.55-2.79,20.12,20.12,0,0,0-29.09,1.13.8.8,0,0,1-1.2-1.06,21.74,21.74,0,0,1,31.4-1.22c1,.92,1.81,1.93,2.65,2.9a25.69,25.69,0,0,0,4.17,4.17,26.11,26.11,0,0,0,5.27,2.69c1,.39,1.89.79,2.81,1.24,3.62,1.75,5.91,4.12,6.63,6.83a.81.81,0,0,1-.57,1Z"/><path class="cls-2" d="M127.39,204.57a.79.79,0,0,1-.67-.37,39.79,39.79,0,0,1-4.5-8.68,15.26,15.26,0,0,1-.2-10,9.72,9.72,0,0,1,7.57-6.49.81.81,0,0,1,.89.69.79.79,0,0,1-.68.89,8.2,8.2,0,0,0-6.28,5.45,13.77,13.77,0,0,0,.21,8.91,38.08,38.08,0,0,0,4.33,8.34.79.79,0,0,1-.24,1.1A.82.82,0,0,1,127.39,204.57Z"/><path class="cls-4" d="M176.62,170.73a12,12,0,1,1,12-11.95A12,12,0,0,1,176.62,170.73Z"/><path class="cls-3" d="M176.62,147.61a11.17,11.17,0,1,1-11.16,11.16,11.17,11.17,0,0,1,11.16-11.16Zm0-1.59a12.76,12.76,0,1,0,12.76,12.75A12.75,12.75,0,0,0,176.62,146Z"/><path class="cls-4" d="M174.08,157.16a4.71,4.71,0,0,1-3.14-1.16,3.57,3.57,0,0,1,0-5.48,4.86,4.86,0,0,1,6.28,0,3.57,3.57,0,0,1,0,5.48A4.73,4.73,0,0,1,174.08,157.16Z"/><path class="cls-2" d="M174.08,149.76a4.29,4.29,0,0,1,2.87,1.06,3.16,3.16,0,0,1,0,4.88,4.29,4.29,0,0,1-2.87,1.06,4.33,4.33,0,0,1-2.88-1.06,3.18,3.18,0,0,1,0-4.88,4.33,4.33,0,0,1,2.88-1.06Zm0-.79a5.17,5.17,0,0,0-3.41,1.25,4,4,0,0,0,0,6.08,5.26,5.26,0,0,0,6.81,0,4,4,0,0,0,0-6.08,5.14,5.14,0,0,0-3.4-1.25Z"/><path class="cls-3" d="M187,151.4a12.72,12.72,0,0,1-22.75,10.34A12.74,12.74,0,1,0,187,151.4Z"/><path class="cls-4" d="M197.68,173.14a12,12,0,1,1,12-12A12,12,0,0,1,197.68,173.14Z"/><path class="cls-3" d="M197.68,150a11.16,11.16,0,1,1-11.16,11.16A11.18,11.18,0,0,1,197.68,150Zm0-1.59a12.76,12.76,0,1,0,12.75,12.75,12.75,12.75,0,0,0-12.75-12.75Z"/><path class="cls-4" d="M195.13,159.56a4.72,4.72,0,0,1-3.14-1.15,3.59,3.59,0,0,1,0-5.48,4.84,4.84,0,0,1,6.29,0,3.59,3.59,0,0,1,0,5.48A4.75,4.75,0,0,1,195.13,159.56Z"/><path class="cls-2" d="M195.13,152.17a4.31,4.31,0,0,1,2.88,1.06,3.18,3.18,0,0,1,0,4.88,4.43,4.43,0,0,1-5.75,0,3.16,3.16,0,0,1,0-4.88,4.29,4.29,0,0,1,2.87-1.06Zm0-.79a5.14,5.14,0,0,0-3.4,1.25,4,4,0,0,0,0,6.08,5.26,5.26,0,0,0,6.81,0,4,4,0,0,0,0-6.08,5.15,5.15,0,0,0-3.41-1.25Z"/><path class="cls-3" d="M208.05,153.81a12.71,12.71,0,0,1-22.74,10.34,12.73,12.73,0,1,0,22.74-10.34Z"/><path class="cls-4" d="M165.07,178.66a12,12,0,1,1,12-12A12,12,0,0,1,165.07,178.66Z"/><path class="cls-3" d="M165.07,155.54a11.16,11.16,0,1,1-11.16,11.16,11.17,11.17,0,0,1,11.16-11.16Zm0-1.59a12.75,12.75,0,1,0,12.76,12.75A12.75,12.75,0,0,0,165.07,154Z"/><path class="cls-4" d="M162.53,165.08a4.66,4.66,0,0,1-3.14-1.16,3.56,3.56,0,0,1,0-5.47,4.83,4.83,0,0,1,6.28,0,3.56,3.56,0,0,1,0,5.47A4.68,4.68,0,0,1,162.53,165.08Z"/><path class="cls-2" d="M162.53,157.69a4.28,4.28,0,0,1,2.87,1.05,3.17,3.17,0,0,1,0,4.89,4.28,4.28,0,0,1-2.87,1.05,4.32,4.32,0,0,1-2.88-1.05,3.19,3.19,0,0,1,0-4.89,4.32,4.32,0,0,1,2.88-1.05Zm0-.8a5.11,5.11,0,0,0-3.41,1.26,4,4,0,0,0,0,6.07,5.23,5.23,0,0,0,6.81,0,4,4,0,0,0,0-6.07,5.1,5.1,0,0,0-3.4-1.26Z"/><path class="cls-3" d="M175.45,159.33a12.5,12.5,0,0,1,.38,3,12.73,12.73,0,0,1-23.13,7.37,12.73,12.73,0,1,0,22.75-10.33Z"/><path class="cls-4" d="M186.06,178.66a12,12,0,1,1,12-12A12,12,0,0,1,186.06,178.66Z"/><path class="cls-3" d="M186.06,155.54A11.16,11.16,0,1,1,174.9,166.7a11.18,11.18,0,0,1,11.16-11.16Zm0-1.59a12.75,12.75,0,1,0,12.75,12.75A12.75,12.75,0,0,0,186.06,154Z"/><path class="cls-4" d="M183.51,165.08a4.7,4.7,0,0,1-3.14-1.16,3.58,3.58,0,0,1,0-5.47,4.83,4.83,0,0,1,6.28,0,3.56,3.56,0,0,1,0,5.47A4.66,4.66,0,0,1,183.51,165.08Z"/><path class="cls-2" d="M183.51,157.69a4.31,4.31,0,0,1,2.88,1.05,3.19,3.19,0,0,1,0,4.89,4.46,4.46,0,0,1-5.75,0,3.17,3.17,0,0,1,0-4.89,4.28,4.28,0,0,1,2.87-1.05Zm0-.8a5.1,5.1,0,0,0-3.4,1.26,4,4,0,0,0,0,6.07,5.23,5.23,0,0,0,6.81,0,4,4,0,0,0,0-6.07,5.11,5.11,0,0,0-3.41-1.26Z"/><path class="cls-3" d="M196.43,159.33a12.5,12.5,0,0,1,.39,3,12.73,12.73,0,0,1-23.13,7.37,12.73,12.73,0,0,0,25.12-3A12.59,12.59,0,0,0,196.43,159.33Z"/><path class="cls-4" d="M205.54,187.58a12,12,0,1,1,12-12A12,12,0,0,1,205.54,187.58Z"/><path class="cls-3" d="M205.54,164.46a11.16,11.16,0,1,1-11.16,11.16,11.18,11.18,0,0,1,11.16-11.16Zm0-1.59a12.76,12.76,0,1,0,12.75,12.75,12.75,12.75,0,0,0-12.75-12.75Z"/><path class="cls-4" d="M203,174a4.72,4.72,0,0,1-3.14-1.15,3.59,3.59,0,0,1,0-5.48,4.83,4.83,0,0,1,6.28,0,3.56,3.56,0,0,1,0,5.47A4.66,4.66,0,0,1,203,174Z"/><path class="cls-2" d="M203,166.61a4.31,4.31,0,0,1,2.88,1.06,3.18,3.18,0,0,1,0,4.88,4.43,4.43,0,0,1-5.75,0,3.16,3.16,0,0,1,0-4.88,4.29,4.29,0,0,1,2.87-1.06Zm0-.8a5.1,5.1,0,0,0-3.4,1.26,4,4,0,0,0,0,6.07,5.23,5.23,0,0,0,6.81,0,4,4,0,0,0,0-6.07,5.11,5.11,0,0,0-3.41-1.26Z"/><path class="cls-3" d="M215.91,168.25a12.57,12.57,0,0,1,.39,3,12.73,12.73,0,0,1-23.13,7.38,12.73,12.73,0,1,0,22.74-10.34Z"/><path class="cls-4" d="M168.64,193.29a12,12,0,1,1,12-11.95A12,12,0,0,1,168.64,193.29Z"/><path class="cls-3" d="M168.64,170.18a11.16,11.16,0,1,1-11.16,11.16,11.16,11.16,0,0,1,11.16-11.16Zm0-1.6a12.76,12.76,0,1,0,12.75,12.76,12.75,12.75,0,0,0-12.75-12.76Z"/><path class="cls-4" d="M166.1,179.72a4.66,4.66,0,0,1-3.14-1.16,3.57,3.57,0,0,1,0-5.48,4.86,4.86,0,0,1,6.28,0,3.59,3.59,0,0,1,0,5.48A4.68,4.68,0,0,1,166.1,179.72Z"/><path class="cls-2" d="M166.1,172.32a4.29,4.29,0,0,1,2.87,1.06,3.16,3.16,0,0,1,0,4.88,4.43,4.43,0,0,1-5.75,0,3.18,3.18,0,0,1,0-4.88,4.31,4.31,0,0,1,2.88-1.06Zm0-.79a5.11,5.11,0,0,0-3.41,1.26,4,4,0,0,0,0,6.07,5.23,5.23,0,0,0,6.81,0,4,4,0,0,0,0-6.07,5.1,5.1,0,0,0-3.4-1.26Z"/><path class="cls-3" d="M179,174a12.72,12.72,0,0,1-22.75,10.34A12.73,12.73,0,1,0,179,174Z"/><path class="cls-4" d="M189.7,195.81a12,12,0,1,1,12-12A12,12,0,0,1,189.7,195.81Z"/><path class="cls-3" d="M189.7,172.69a11.16,11.16,0,1,1-11.16,11.16,11.18,11.18,0,0,1,11.16-11.16Zm0-1.59a12.75,12.75,0,1,0,12.75,12.75A12.75,12.75,0,0,0,189.7,171.1Z"/><path class="cls-4" d="M187.15,182.23a4.68,4.68,0,0,1-3.14-1.16,3.56,3.56,0,0,1,0-5.47,4.83,4.83,0,0,1,6.28,0,3.56,3.56,0,0,1,0,5.47A4.66,4.66,0,0,1,187.15,182.23Z"/><path class="cls-2" d="M187.15,174.84a4.32,4.32,0,0,1,2.88,1,3.19,3.19,0,0,1,0,4.89,4.32,4.32,0,0,1-2.88,1.05,4.28,4.28,0,0,1-2.87-1.05,3.17,3.17,0,0,1,0-4.89,4.28,4.28,0,0,1,2.87-1Zm0-.8a5.1,5.1,0,0,0-3.4,1.26,4,4,0,0,0,0,6.07,5.23,5.23,0,0,0,6.81,0,4,4,0,0,0,0-6.07,5.12,5.12,0,0,0-3.41-1.26Z"/><path class="cls-3" d="M200.07,176.48a12.5,12.5,0,0,1,.38,3,12.73,12.73,0,0,1-23.13,7.37,12.74,12.74,0,0,0,25.13-3A12.59,12.59,0,0,0,200.07,176.48Z"/><path class="cls-4" d="M179.56,223.28a7.91,7.91,0,1,1,7.91-7.91A7.91,7.91,0,0,1,179.56,223.28Z"/><path class="cls-3" d="M179.56,208.26a7.11,7.11,0,1,1-7.11,7.11,7.12,7.12,0,0,1,7.11-7.11Zm0-1.59a8.7,8.7,0,1,0,8.7,8.7,8.7,8.7,0,0,0-8.7-8.7Z"/><path class="cls-4" d="M177.82,214.14a3.08,3.08,0,0,1-2.06-.76,2.32,2.32,0,0,1,0-3.54,3.17,3.17,0,0,1,4.12,0,2.3,2.3,0,0,1,0,3.54A3.06,3.06,0,0,1,177.82,214.14Z"/><path class="cls-2" d="M177.82,209.48a2.7,2.7,0,0,1,1.8.65,1.93,1.93,0,0,1,0,3,2.8,2.8,0,0,1-3.59,0,1.91,1.91,0,0,1,0-3,2.7,2.7,0,0,1,1.79-.65Zm0-.8a3.49,3.49,0,0,0-2.32.86,2.71,2.71,0,0,0,0,4.14,3.57,3.57,0,0,0,4.65,0,2.71,2.71,0,0,0,0-4.14,3.5,3.5,0,0,0-2.33-.86Z"/><path class="cls-3" d="M186.64,210.34a8.41,8.41,0,0,1,.26,2,8.68,8.68,0,0,1-15.78,5,8.69,8.69,0,1,0,15.52-7Z"/><path class="cls-4" d="M117.73,190.32a7.91,7.91,0,1,1,7.9-7.91A7.92,7.92,0,0,1,117.73,190.32Z"/><path class="cls-3" d="M117.73,175.3a7.11,7.11,0,1,1-7.11,7.11,7.12,7.12,0,0,1,7.11-7.11Zm0-1.59a8.7,8.7,0,1,0,8.7,8.7,8.7,8.7,0,0,0-8.7-8.7Z"/><path class="cls-4" d="M116,181.18a3.08,3.08,0,0,1-2.06-.76,2.3,2.3,0,0,1,0-3.54,3,3,0,0,1,2.06-.76,3.08,3.08,0,0,1,2.06.76,2.3,2.3,0,0,1,0,3.54A3.08,3.08,0,0,1,116,181.18Z"/><path class="cls-2" d="M116,176.51a2.69,2.69,0,0,1,1.79.66,1.91,1.91,0,0,1,0,3,2.68,2.68,0,0,1-1.79.65,2.72,2.72,0,0,1-1.8-.65,1.93,1.93,0,0,1,0-3,2.73,2.73,0,0,1,1.8-.66Zm0-.79a3.44,3.44,0,0,0-2.32.86,2.7,2.7,0,0,0,0,4.14,3.56,3.56,0,0,0,4.64,0,2.7,2.7,0,0,0,0-4.14,3.44,3.44,0,0,0-2.32-.86Z"/><path class="cls-3" d="M124.81,177.38a8.94,8.94,0,0,1,.26,2,8.69,8.69,0,0,1-15.79,5,8.69,8.69,0,1,0,15.53-7.05Z"/><path class="cls-4" d="M246.7,189.18a7.91,7.91,0,1,1,7.91-7.91A7.91,7.91,0,0,1,246.7,189.18Z"/><path class="cls-3" d="M246.7,174.17a7.11,7.11,0,1,1-7.1,7.11,7.12,7.12,0,0,1,7.1-7.11Zm0-1.6a8.71,8.71,0,1,0,8.71,8.71,8.71,8.71,0,0,0-8.71-8.71Z"/><path class="cls-4" d="M245,180a3.12,3.12,0,0,1-2.06-.75,2.31,2.31,0,0,1,0-3.55,3.17,3.17,0,0,1,4.12,0,2.31,2.31,0,0,1,0,3.55A3.12,3.12,0,0,1,245,180Z"/><path class="cls-2" d="M245,175.38a2.68,2.68,0,0,1,1.79.65,1.91,1.91,0,0,1,0,3,2.69,2.69,0,0,1-1.79.66,2.73,2.73,0,0,1-1.8-.66,1.93,1.93,0,0,1,0-3,2.72,2.72,0,0,1,1.8-.65Zm0-.8a3.54,3.54,0,0,0-2.33.86,2.71,2.71,0,0,0,0,4.14,3.49,3.49,0,0,0,2.33.86,3.44,3.44,0,0,0,2.32-.86,2.71,2.71,0,0,0,0-4.14,3.49,3.49,0,0,0-2.32-.86Z"/><path class="cls-3" d="M253.78,176.24a8.55,8.55,0,0,1,.26,2,8.69,8.69,0,0,1-15.78,5,8.69,8.69,0,1,0,15.52-7.06Z"/><polygon class="cls-3" points="236.66 144.75 236.05 145.42 284.22 173.23 179.56 233.66 74.9 173.23 179.56 112.81 194.08 121.19 194.47 120.39 179.56 111.79 73.13 173.23 179.56 234.68 285.99 173.23 236.66 144.75"/><polygon class="cls-2" points="39.18 210.35 66.28 174.28 178.39 239 151.28 275.08 39.18 210.35"/><path class="cls-3" d="M66.49,175.32l110.72,63.92L151.07,274,40.35,210.12l26.14-34.8Zm-.42-2.09L38,210.6l113.5,65.52,28.06-37.36L66.07,173.23Z"/><polygon class="cls-2" points="180.51 239.13 292.6 174.42 299.51 196.15 187.43 260.86 180.51 239.13"/><path class="cls-3" d="M292.14,175.6l6.42,20.18-110.68,63.9-6.41-20.18,110.67-63.9Zm.92-2.37-113.5,65.53L187,262l113.49-65.52-7.4-23.29Z"/><polygon class="cls-2" points="156.14 119.27 164.71 115.36 65.67 172.54 57.1 176.45 156.14 119.27"/><polygon class="cls-3" points="179.56 107.71 155.74 118.58 42.25 184.11 66.06 173.23 179.56 107.71 179.56 107.71"/><path class="cls-4" d="M216.27,260l-3,12.17c-.61,2.65-1.24,5.38-1.87,8.15l-.14.08c-.13-2.32-.27-4.64-.42-6.82l-1-9.86-4.36,2.51-3.83,12.68-2.3,8.39-.14.08c0-2.39,0-4.74,0-7.09L199.06,270l-5.25,3L195,294.65l6.34-3.66,3.49-12.17c.61-2.06,1.12-4.18,1.62-6.11l.14-.08c0,1.63.07,3.42.22,5.05l.87,9.65,6.44-3.72,7-26.42Z"/><path class="cls-2" d="M195,295a.43.43,0,0,1-.19,0,.42.42,0,0,1-.21-.33L193.41,273a.41.41,0,0,1,.2-.37l5.25-3a.41.41,0,0,1,.4,0,.37.37,0,0,1,.2.33l.17,10.37c0,1.05,0,2.1,0,3.15v1.33c.55-2,1.09-4,1.64-6l3.83-12.68a.38.38,0,0,1,.18-.23l4.36-2.52a.39.39,0,0,1,.38,0,.4.4,0,0,1,.21.32l1,9.86c.1,1.45.2,2.95.29,4.47l1.37-5.93,3-12.17a.37.37,0,0,1,.19-.25l4.92-2.84a.39.39,0,0,1,.44,0,.4.4,0,0,1,.14.42l-7,26.42a.41.41,0,0,1-.19.24l-6.44,3.72a.42.42,0,0,1-.38,0,.38.38,0,0,1-.21-.32l-.87-9.65c-.08-.84-.13-1.71-.17-2.61-.32,1.26-.66,2.55-1,3.83l-3.49,12.16a.36.36,0,0,1-.18.24L195.23,295A.35.35,0,0,1,195,295Zm-.81-21.82L195.39,294l5.64-3.26,3.45-12c.46-1.57.87-3.17,1.26-4.71l.36-1.39a.43.43,0,0,1,.19-.25l.13-.08a.47.47,0,0,1,.4,0,.4.4,0,0,1,.2.34c0,1.76.07,3.46.22,5l.81,9,5.76-3.33L220.55,258l-3.94,2.28-3.52,14.6-1.28,5.55a.38.38,0,0,1-.19.26l-.13.07a.4.4,0,0,1-.6-.32c-.13-2.32-.27-4.64-.42-6.81l-1-9.24-3.68,2.13L202,279.05c-.76,2.77-1.53,5.57-2.29,8.38a.41.41,0,0,1-.19.24l-.14.09a.43.43,0,0,1-.41,0,.38.38,0,0,1-.19-.35c0-1.32,0-2.63,0-3.93,0-1.06,0-2.1,0-3.15l-.16-9.67Z"/><path class="cls-4" d="M233.61,249.61a25,25,0,0,0-11.85,18.32c-1,7.87,2.62,10.19,8.75,6.64s10.9-10.68,11.87-18.55S239.73,246.07,233.61,249.61Zm3.51,9.46c-.6,4.84-2.92,9-6,10.81s-4.67-.14-4.07-5,2.9-8.8,6-10.59S237.71,254.27,237.12,259.07Z"/><path class="cls-2" d="M225.66,276.58a4.08,4.08,0,0,1-2.3-.64c-1.81-1.2-2.5-4-2-8.06a25.36,25.36,0,0,1,12-18.62h0c3.16-1.82,5.73-2.19,7.42-1.07s2.44,3.9,1.95,7.88c-1,7.77-5.7,15.17-12.07,18.85A10.59,10.59,0,0,1,225.66,276.58ZM233.8,250a24.56,24.56,0,0,0-11.64,18c-.47,3.75.1,6.27,1.64,7.3s3.68.58,6.51-1c6.16-3.56,10.75-10.72,11.68-18.26.45-3.66-.1-6.12-1.6-7.11s-3.71-.57-6.59,1.09Zm-4.72,21a2.18,2.18,0,0,1-1.22-.35c-1.18-.78-1.61-2.77-1.24-5.75.61-4.85,3-9,6.21-10.89,1.44-.83,2.62-1,3.49-.39,1.14.76,1.55,2.68,1.19,5.56h0c-.62,5-3,9.25-6.22,11.11A4.53,4.53,0,0,1,229.08,270.94Zm6-16.93a4.12,4.12,0,0,0-1.88.63c-3,1.74-5.23,5.69-5.81,10.3-.32,2.58,0,4.4.89,5s1.82.06,2.59-.38c3-1.74,5.24-5.77,5.83-10.52.31-2.53,0-4.23-.84-4.79A1.34,1.34,0,0,0,235.1,254Z"/><polygon class="cls-4" points="265.8 231.43 260.16 234.69 252.19 248.44 252.04 248.53 253.26 238.67 248.15 241.62 245.17 265.7 250.28 262.75 251.08 256.29 254.19 251.06 258.47 258.02 264.07 254.78 257.75 245 265.8 231.43"/><path class="cls-2" d="M245.17,266.1A.34.34,0,0,1,245,266a.39.39,0,0,1-.18-.38l3-24.08a.4.4,0,0,1,.2-.29l5.11-2.95a.39.39,0,0,1,.59.39l-1,8.13,7.17-12.36a.29.29,0,0,1,.14-.15l5.65-3.26a.4.4,0,0,1,.54.55L258.22,245l6.19,9.58a.37.37,0,0,1,0,.31.43.43,0,0,1-.19.25l-5.6,3.24a.41.41,0,0,1-.54-.14l-3.94-6.4-2.73,4.59-.79,6.38a.39.39,0,0,1-.19.29l-5.11,3A.53.53,0,0,1,245.17,266.1Zm3.35-24.23L245.66,265l4.25-2.46.77-6.26a.88.88,0,0,1,0-.15l3.11-5.23a.39.39,0,0,1,.34-.19h0a.39.39,0,0,1,.34.19l4.08,6.62,4.91-2.83-6.09-9.44a.4.4,0,0,1,0-.42l7.27-12.25L260.45,235l-7.92,13.66a.32.32,0,0,1-.14.14l-.15.09a.38.38,0,0,1-.42,0,.39.39,0,0,1-.18-.38l1.13-9.07Z"/></svg>